<svg width="272" height="272" viewBox="0 0 272 272" fill="none" xmlns="http://www.w3.org/2000/svg">
<circle opacity="0.1" cx="136" cy="136" r="136" fill="white"/>
<circle opacity="0.1" cx="136.596" cy="135.404" r="104.386" fill="white"/>
<circle opacity="0.1" cx="139.579" cy="136" r="70.386" fill="white"/>
<g filter="url(#filter0_d)">
<path d="M170.306 61.9081H100.735H93.311C93.311 61.9081 93.3113 134.358 123.451 151.126C127.004 153.102 129.161 156.894 129.161 160.96H134.455H144.638C144.638 156.894 146.795 153.103 150.348 151.126C153.614 149.309 156.526 146.838 159.122 143.876C174.392 126.459 178.749 92.0709 179.992 73.8652C180.488 66.5977 180.488 61.9075 180.488 61.9075H170.306V61.9081Z" fill="#FECE00"/>
<path d="M63.1069 88.6938C63.431 61.0688 93.8056 73.8652 93.8056 73.8652C93.9961 76.6511 94.2596 79.8163 94.6235 83.2409C86.632 80.3636 69.5624 76.1267 71.9591 93.5724C74.3911 111.277 82.1129 123.517 92.393 130.118C98.1168 133.793 104.442 134.313 108.096 134.24C110.026 137.801 112.208 141.061 114.675 143.876V143.876C114.675 143.876 101.758 146.283 88.889 138.539C76.9054 131.327 62.7881 115.844 63.1069 88.6938Z" fill="#EEBF00"/>
<path d="M144.638 171.325H129.163V185.048H144.638V171.325Z" fill="#FECE00"/>
<path d="M144.641 171.325H128.907V176.706H144.641V171.325Z" fill="#DDB201"/>
<path d="M168.923 194.944H104.878V209.489H168.923V194.944Z" fill="#3E3D43"/>
<path d="M168.923 203.887H104.878V209.485H168.923V203.887Z" fill="#444444"/>
<path d="M156.864 185.048H116.94V194.941H156.864V185.048Z" fill="#77767E"/>
<path d="M156.864 189.995H116.94V194.942H156.864V189.995Z" fill="#3E3D43"/>
<path d="M144.895 171.325H128.905C126.042 171.325 123.722 169.005 123.722 166.142C123.722 163.28 126.042 160.959 128.905 160.959H144.895C147.757 160.959 150.078 163.28 150.078 166.142C150.078 169.005 147.757 171.325 144.895 171.325Z" fill="#CBA400"/>
<path d="M170.306 61.9081C170.306 61.9081 170.305 66.5983 169.809 73.8658C168.566 92.0715 164.209 126.459 148.939 143.876C146.343 146.838 143.431 149.31 140.166 151.127C136.613 153.103 134.455 156.895 134.455 160.96H144.637C144.637 156.895 146.795 153.103 150.348 151.127C153.614 149.31 156.525 146.838 159.122 143.876C174.391 126.46 178.748 92.0715 179.991 73.8658C180.488 66.5983 180.488 61.9081 180.488 61.9081H170.306Z" fill="#DDB201"/>
<path d="M130.875 151.126C100.735 134.358 100.735 61.9081 100.735 61.9081H93.311C93.311 61.9081 93.3113 134.358 123.451 151.126C127.004 153.102 129.161 156.894 129.161 160.96H134.455C134.455 159.273 134.832 157.636 135.52 156.154C134.55 154.063 132.953 152.283 130.875 151.126Z" fill="#FEDA44"/>
<path d="M210.691 88.6938C210.366 61.0688 179.992 73.8652 179.992 73.8652C179.801 76.6511 179.538 79.8163 179.174 83.2409C187.165 80.3633 204.235 76.1264 201.838 93.5721C199.406 111.277 191.685 123.517 181.404 130.118C175.681 133.793 169.355 134.313 165.702 134.24C163.771 137.801 161.59 141.061 159.122 143.876V143.876C159.122 143.876 172.039 146.283 184.908 138.539C196.892 131.327 211.009 115.844 210.691 88.6938Z" fill="#EEBF00"/>
<path d="M88.5802 81.4468C90.8215 81.9596 92.9273 82.6304 94.6237 83.2412C94.2597 79.8166 93.9962 76.6511 93.8058 73.8655C93.8058 73.8655 90.8185 72.6091 86.71 71.7339C87.4491 74.9508 88.1497 78.177 88.5802 81.4468Z" fill="#CBA400"/>
<path d="M108.096 134.24C106.252 134.277 103.726 134.161 100.941 133.567C101.214 134.316 101.489 135.067 101.777 135.814C103.101 138.646 104.721 141.389 106.37 144.092C111.339 144.496 114.675 143.876 114.675 143.876V143.876C112.208 141.061 110.026 137.801 108.096 134.24Z" fill="#CBA400"/>
<path d="M185.217 81.4468C182.976 81.9596 180.87 82.6304 179.174 83.2412C179.538 79.8166 179.801 76.6511 179.992 73.8655C179.992 73.8655 182.979 72.6091 187.088 71.7339C186.348 74.9508 185.648 78.177 185.217 81.4468Z" fill="#CBA400"/>
<path d="M165.702 134.24C167.546 134.277 170.071 134.161 172.856 133.567C172.584 134.316 172.309 135.067 172.021 135.814C170.697 138.646 169.076 141.389 167.427 144.092C162.459 144.496 159.123 143.876 159.123 143.876V143.876C161.59 141.061 163.771 137.801 165.702 134.24Z" fill="#CBA400"/>
<path d="M146.896 187.307H126.902V169.066H146.896V187.307ZM131.42 182.789H142.379V173.584H131.42V182.789Z" fill="black"/>
<path d="M144.895 173.584H128.905C124.801 173.584 121.463 170.246 121.463 166.142C121.463 162.039 124.801 158.7 128.905 158.7H144.895C148.999 158.7 152.337 162.039 152.337 166.142C152.337 170.246 148.999 173.584 144.895 173.584ZM128.905 163.219C127.292 163.219 125.981 164.53 125.981 166.143C125.981 167.755 127.292 169.067 128.905 169.067H144.895C146.507 169.067 147.819 167.755 147.819 166.143C147.819 164.53 146.507 163.219 144.895 163.219H128.905Z" fill="black"/>
<path d="M159.119 197.201H114.68V182.789H159.119V197.201ZM119.198 192.683H154.601V187.307H119.198V192.683Z" fill="black"/>
<path d="M171.181 211.746H102.618V192.683H171.181V211.746ZM107.136 207.228H166.664V197.201H107.136V207.228Z" fill="black"/>
<path d="M146.896 163.219H126.902V160.96C126.902 157.674 125.159 154.662 122.353 153.1C115.052 149.038 108.869 141.623 103.977 131.061C100.148 122.796 97.0801 112.561 94.8581 100.643C91.0954 80.463 91.0518 62.0913 91.0518 61.908V59.6492H182.747L182.747 61.9083C182.747 62.1029 182.741 66.7586 182.245 74.0196C180.948 93.0179 176.44 127.55 160.82 145.365C157.959 148.629 154.805 151.232 151.446 153.101C148.64 154.662 146.897 157.674 146.897 160.96L146.896 163.219ZM131.234 158.701H142.566C143.236 154.682 145.67 151.144 149.25 149.152C152.155 147.536 154.905 145.26 157.423 142.387C172.167 125.57 176.48 92.1415 177.738 73.7115C178.022 69.543 178.142 66.2132 178.193 64.1668H95.6101C95.9339 76.4282 98.8324 134.844 124.549 149.152C128.129 151.144 130.564 154.682 131.234 158.701Z" fill="black"/>
<path d="M164.088 146.489C164.087 146.489 164.087 146.489 164.086 146.489C160.85 146.489 158.794 146.113 158.708 146.097L154.808 145.371L157.424 142.387C159.67 139.825 161.787 136.721 163.716 133.164L164.372 131.954L165.748 131.982C165.935 131.985 166.13 131.987 166.333 131.987C169.973 131.987 175.332 131.334 180.184 128.218C190.52 121.581 197.416 109.168 199.6 93.2653C200.125 89.4474 199.661 86.6752 198.223 85.0257C196.971 83.5901 194.826 82.8623 191.846 82.8623C187.754 82.8623 183.112 84.2241 179.939 85.3671L176.547 86.5887L176.928 83.0034C177.255 79.9267 177.527 76.8006 177.738 73.7123L177.833 72.3246L179.115 71.7845C179.419 71.6561 186.648 68.6475 194.346 68.6475C206.191 68.6475 212.798 75.7575 212.949 88.6681C213.098 101.369 210.202 112.675 204.341 122.272C198.586 131.694 191.23 137.372 186.073 140.475C177.813 145.445 169.558 146.489 164.088 146.489ZM163.525 141.967C163.707 141.97 163.895 141.971 164.086 141.971C164.087 141.971 164.087 141.971 164.088 141.971C168.986 141.971 176.372 141.04 183.743 136.604C191.282 132.067 208.779 118.32 208.432 88.721C208.309 78.2534 203.701 73.1651 194.346 73.1651C189.343 73.1651 184.402 74.6731 182.142 75.4688C182.03 76.9824 181.903 78.5021 181.763 80.0176C184.833 79.1156 188.452 78.3437 191.846 78.3437C196.189 78.3437 199.48 79.5924 201.628 82.0556C203.962 84.7334 204.786 88.7114 204.076 93.8794C202.86 102.733 200.318 110.559 196.521 117.138C192.896 123.419 188.221 128.426 182.625 132.018C177.16 135.528 171.249 136.413 167.032 136.498C165.918 138.457 164.747 140.284 163.525 141.967Z" fill="black"/>
<path d="M109.711 146.489C104.24 146.489 95.9842 145.445 87.7241 140.475C82.5668 137.371 75.2114 131.694 69.4567 122.271C63.5953 112.674 60.6989 101.368 60.8477 88.6675C60.9993 75.7572 67.6061 68.6469 79.4515 68.6469C87.1492 68.6469 94.3784 71.6555 94.6824 71.7839L95.964 72.324L96.0588 73.7114C96.2706 76.8083 96.5431 79.9341 96.8693 83.0025L97.2501 86.5881L93.8576 85.3664C90.6847 84.2238 86.0428 82.8619 81.951 82.8619C78.9714 82.8619 76.8258 83.5895 75.5744 85.0251C74.1356 86.6751 73.6721 89.447 74.1965 93.2647C76.381 109.167 83.2766 121.58 93.6128 128.217C98.4653 131.333 103.824 131.987 107.464 131.987C107.667 131.987 107.862 131.985 108.05 131.981L109.425 131.953L110.081 133.163C112.01 136.721 114.127 139.825 116.373 142.386L116.934 143.025V143.875C116.934 144.463 116.712 145.864 114.658 146.166C114.327 146.214 113.962 146.26 113.573 146.299C112.359 146.426 111.06 146.489 109.711 146.489ZM79.4515 73.1648C70.096 73.1648 65.4884 78.2531 65.3654 88.72C65.0178 118.318 82.5148 132.066 90.0536 136.603C97.4254 141.039 104.812 141.97 109.711 141.97C109.903 141.97 110.089 141.969 110.271 141.966C109.05 140.283 107.879 138.456 106.765 136.498C102.549 136.413 96.6372 135.528 91.1722 132.018C85.5764 128.425 80.9013 123.419 77.2765 117.138C73.4793 110.559 70.9374 102.733 69.7211 93.8794C69.011 88.7111 69.8349 84.733 72.1697 82.0556C74.3171 79.5924 77.6083 78.344 81.9516 78.344C85.3456 78.344 88.9633 79.1156 92.0338 80.0178C91.8944 78.5044 91.7679 76.9845 91.6553 75.4687C89.3967 74.6731 84.4549 73.1648 79.4515 73.1648Z" fill="black"/>
<path d="M180.295 67.2463H93.312V71.7643H180.295V67.2463Z" fill="black"/>
<path d="M118.333 140.564C116.89 139.015 115.506 137.239 114.218 135.283L117.991 132.797C119.141 134.544 120.368 136.12 121.639 137.485L118.333 140.564Z" fill="white"/>
<path d="M112.484 132.447C108.947 126.221 106.055 118.249 103.888 108.752L108.293 107.747C110.362 116.814 113.093 124.373 116.412 130.215L112.484 132.447Z" fill="white"/>
<path d="M188.837 162.541L188.829 150.394L184.311 150.397L184.319 162.544L188.837 162.541Z" fill="black"/>
<path d="M192.656 158.724L192.653 154.206L180.506 154.214L180.509 158.732L192.656 158.724Z" fill="black"/>
<path d="M91.1214 174.362H86.6035V185.28H91.1214V174.362Z" fill="black"/>
<path d="M94.323 177.561H83.4048V182.079H94.323V177.561Z" fill="black"/>
<path d="M79.6158 145.252H75.354V149.77H79.6158V145.252Z" fill="black"/>
<path d="M107.006 158.618H102.745V163.136H107.006V158.618Z" fill="black"/>
<path d="M175.698 172.21H171.436V176.728H175.698V172.21Z" fill="black"/>
</g>
<defs>
<filter id="filter0_d" x="56.8423" y="59.6492" width="160.113" height="160.097" filterUnits="userSpaceOnUse" color-interpolation-filters="sRGB">
<feFlood flood-opacity="0" result="BackgroundImageFix"/>
<feColorMatrix in="SourceAlpha" type="matrix" values="0 0 0 0 0 0 0 0 0 0 0 0 0 0 0 0 0 0 127 0"/>
<feOffset dy="4"/>
<feGaussianBlur stdDeviation="2"/>
<feColorMatrix type="matrix" values="0 0 0 0 0 0 0 0 0 0 0 0 0 0 0 0 0 0 0.25 0"/>
<feBlend mode="normal" in2="BackgroundImageFix" result="effect1_dropShadow"/>
<feBlend mode="normal" in="SourceGraphic" in2="effect1_dropShadow" result="shape"/>
</filter>
</defs>
</svg>
