<svg width="236" height="196" viewBox="0 0 236 196" fill="none" xmlns="http://www.w3.org/2000/svg">
<path d="M168.6 44.3729H166.923C166.592 44.3729 166.324 44.6412 166.324 44.9722V67.4846C166.324 67.8155 166.592 68.0838 166.923 68.0838H168.6C168.93 68.0838 169.198 67.8155 169.198 67.4846V44.9722C169.198 44.6412 168.93 44.3729 168.6 44.3729Z" fill="#3F3D56"/>
<path d="M157.68 0H81.9044C76.2739 0 71.7095 4.56831 71.7095 10.2036V185.404C71.7095 191.039 76.2739 195.607 81.9044 195.607H157.68C163.31 195.607 167.875 191.039 167.875 185.404V10.2036C167.875 4.56831 163.31 0 157.68 0Z" fill="#3F3D56"/>
<path d="M154.49 5.09497H143.459V6.42309C143.459 7.24979 143.296 8.06839 142.98 8.83212C142.664 9.59585 142.2 10.2897 141.616 10.8741C141.032 11.4586 140.338 11.922 139.575 12.2381C138.812 12.5541 137.994 12.7166 137.168 12.7161H102.086C101.26 12.7166 100.442 12.5541 99.6783 12.2381C98.915 11.922 98.2215 11.4586 97.6372 10.8741C97.053 10.2897 96.5895 9.59585 96.2733 8.83212C95.9571 8.06839 95.7944 7.24979 95.7944 6.42309V5.09497H85.4661C83.4405 5.09497 81.4979 5.90031 80.0656 7.33383C78.6333 8.76734 77.8286 10.7116 77.8286 12.7389V182.882C77.8286 184.909 78.6333 186.853 80.0656 188.287C81.4979 189.72 83.4405 190.526 85.4661 190.526H154.49C156.515 190.526 158.458 189.72 159.89 188.287C161.323 186.853 162.127 184.909 162.127 182.882V12.752C162.129 11.7471 161.933 10.7517 161.55 9.82276C161.167 8.89385 160.604 8.04964 159.895 7.33845C159.186 6.62726 158.343 6.06304 157.416 5.67808C156.488 5.29312 155.494 5.09497 154.49 5.09497Z" fill="white"/>
<path d="M122.933 5.84155H111.528C110.969 5.84155 110.516 6.29499 110.516 6.85432V7.55646C110.516 8.1158 110.969 8.56923 111.528 8.56923H122.933C123.492 8.56923 123.945 8.1158 123.945 7.55646V6.85432C123.945 6.29499 123.492 5.84155 122.933 5.84155Z" fill="#E6E8EC"/>
<path d="M127.524 8.7546C128.378 8.7546 129.071 8.06109 129.071 7.20561C129.071 6.35012 128.378 5.65662 127.524 5.65662C126.669 5.65662 125.976 6.35012 125.976 7.20561C125.976 8.06109 126.669 8.7546 127.524 8.7546Z" fill="#E6E8EC"/>
<path d="M120.379 118.412C130.426 118.412 138.571 110.261 138.571 100.205C138.571 90.1497 130.426 81.998 120.379 81.998C110.332 81.998 102.188 90.1497 102.188 100.205C102.188 110.261 110.332 118.412 120.379 118.412Z" fill="white"/>
<path d="M144.307 97.6628C144.306 102.476 142.88 107.181 140.208 111.182C137.537 115.184 133.739 118.303 129.296 120.144C124.854 121.986 119.965 122.468 115.248 121.529C110.532 120.59 106.2 118.272 102.8 114.869C99.3993 111.465 97.0838 107.129 96.1458 102.409C95.2077 97.6882 95.6894 92.7954 97.5298 88.3489C99.3702 83.9024 102.487 80.102 106.485 77.4282C110.484 74.7544 115.185 73.3274 119.993 73.3275C123.186 73.3276 126.348 73.9572 129.298 75.1802C132.248 76.4032 134.928 78.1957 137.186 80.4555C139.443 82.7152 141.234 85.3979 142.456 88.3503C143.678 91.3028 144.307 94.4672 144.307 97.6628ZM117.183 110.544L135.219 92.4924C135.365 92.3467 135.48 92.1737 135.559 91.9831C135.638 91.7925 135.679 91.5882 135.679 91.3819C135.679 91.1756 135.638 90.9713 135.559 90.7807C135.48 90.5902 135.365 90.4171 135.219 90.2714L133 88.0666C132.854 87.9206 132.682 87.8048 132.491 87.7257C132.301 87.6467 132.097 87.606 131.892 87.606C131.686 87.606 131.482 87.6467 131.292 87.7257C131.101 87.8048 130.929 87.9206 130.784 88.0666L116.073 102.789L109.205 95.899C108.91 95.6055 108.511 95.4408 108.095 95.4408C107.679 95.4408 107.281 95.6055 106.986 95.899L104.767 98.1331C104.473 98.4282 104.309 98.8274 104.309 99.2436C104.309 99.6598 104.473 100.059 104.767 100.354L114.964 110.557C115.11 110.703 115.283 110.819 115.473 110.898C115.663 110.977 115.868 111.018 116.074 111.018C116.28 111.018 116.484 110.977 116.674 110.898C116.865 110.819 117.038 110.703 117.183 110.557L117.183 110.544Z" fill="#FFC212"/>
<path d="M74.7207 38.5629H74.4689C74.1382 38.5629 73.8701 38.8312 73.8701 39.1622V44.9805C73.8701 45.3115 74.1382 45.5798 74.4689 45.5798H74.7207C75.0514 45.5798 75.3195 45.3115 75.3195 44.9805V39.1622C75.3195 38.8312 75.0514 38.5629 74.7207 38.5629Z" fill="#3F3D56"/>
<path d="M74.8518 51.4115H74.4162C74.0855 51.4115 73.8174 51.6798 73.8174 52.0108V63.0246C73.8174 63.3556 74.0855 63.6239 74.4162 63.6239H74.8518C75.1825 63.6239 75.4506 63.3556 75.4506 63.0246V52.0108C75.4506 51.6798 75.1825 51.4115 74.8518 51.4115Z" fill="#3F3D56"/>
<path d="M74.7994 67.897H74.4425C74.1118 67.897 73.8438 68.1653 73.8438 68.4963V79.615C73.8438 79.946 74.1118 80.2143 74.4425 80.2143H74.7994C75.1301 80.2143 75.3982 79.946 75.3982 79.615V68.4963C75.3982 68.1653 75.1301 67.897 74.7994 67.897Z" fill="#3F3D56"/>
<path d="M54.5811 100.468C54.6226 100.509 54.676 100.534 54.7333 100.542C54.7906 100.549 54.8487 100.538 54.899 100.509C54.7916 100.511 54.6845 100.497 54.5811 100.468Z" fill="url(#paint0_linear)"/>
<path d="M66.5994 105.173L66.2856 106.884L66.0435 108.192L65.6031 110.586L61.3335 113.578C61.3335 113.578 60.9486 113.248 60.3137 112.728C58.5639 111.286 54.8863 108.35 52.1857 106.774C51.4911 106.331 50.7395 105.984 49.9517 105.743L66.5994 105.173Z" fill="#FEB9B9"/>
<path d="M63.467 106.446C63.467 106.446 68.4453 107.301 68.7368 105.173C69.0284 103.046 66.1744 101.896 63.7557 101.753C61.337 101.609 46.8204 102.608 46.8204 102.608C46.8204 102.608 44.2597 106.026 53.5076 106.598L63.467 106.446Z" fill="#3F3D56"/>
<path d="M74.3541 36.2307H48.311V67.1383H74.3541V36.2307Z" fill="#2F2E41"/>
<path opacity="0.1" d="M74.3541 36.3708H48.311V67.2784H74.3541V36.3708Z" fill="black"/>
<path d="M17.7885 89.1401C17.3596 89.2482 16.8116 89.6635 16.2021 90.2639C13.5774 92.8646 9.81814 98.968 9.81814 98.968C5.01194 93.2381 10.3304 88.7109 12.5974 87.1551C13.1486 86.7786 13.5188 86.5713 13.5188 86.5713L17.7885 89.1401Z" fill="#FEB9B9"/>
<path d="M66.3133 45.9854C66.3133 45.9854 67.5946 54.9579 72.0059 57.0944C76.4173 59.2309 66.3133 63.2239 66.3133 63.2239L52.5103 58.0925C52.5103 58.0925 60.3378 55.5279 58.7716 47.9787L66.3133 45.9854Z" fill="#FEB9B9"/>
<path d="M51.5131 99.9661L51.2009 101.671L50.9473 102.984L50.5069 105.378L46.2373 108.367C46.2373 108.367 45.8524 108.04 45.2175 107.52C43.4677 106.078 39.7903 103.142 37.0856 101.566C36.3913 101.122 35.6397 100.775 34.8516 100.536L51.5131 99.9661Z" fill="#FEB9B9"/>
<path d="M47.8197 102.068C47.8197 102.068 52.2875 102.1 52.5563 99.966C52.8251 97.8321 50.1214 96.6882 47.8197 96.5451C45.5179 96.402 31.5326 97.4668 31.5326 97.4668C31.5326 97.4668 29.5485 101.497 38.3453 102.068L47.8197 102.068Z" fill="#2F2E41"/>
<path d="M79.1454 135.591C78.9501 135.494 78.7545 135.395 78.5621 135.299L78.037 134.636L71.1516 125.897V126.049C71.1051 127.509 70.6093 139.073 66.7421 140.141C62.6154 141.28 57.6372 141.566 55.3678 133.875C53.0985 126.184 48.952 109.377 44.6938 108.379L51.0281 103.18C51.0281 103.18 55.2219 108.09 56.9307 112.789C56.8666 112.497 53.9705 98.954 56.3473 96.5576H77.1282C77.1282 96.5576 80.3362 105.702 82.535 110.232C84.2469 113.75 86.8161 122.065 88.4705 127.693C90.1081 133.25 84.3541 138.156 79.1454 135.591Z" fill="#3F3D56"/>
<path opacity="0.1" d="M78.5537 99.1108C75.3457 101.011 61.2626 100.237 56.681 99.9281L55.4327 99.8376C55.2985 99.8376 55.4531 99.7617 55.4531 99.7617L55.5815 98.4686L58.9966 89.7821L77.2822 79.1692C76.9117 80.2872 76.7893 81.9976 76.8186 83.9562C76.903 90.2492 78.5537 99.1108 78.5537 99.1108Z" fill="black"/>
<path d="M78.5537 98.6819C75.3456 100.582 61.2625 99.8085 56.681 99.4992L55.4327 99.4115L55.2256 99.394L55.4531 99.3356L56.5787 99.0438L58.9963 89.3592L77.2819 78.7491C76.9116 79.8671 76.789 81.5776 76.8183 83.5361C76.903 89.8231 78.5537 98.6819 78.5537 98.6819Z" fill="#EFEFEF"/>
<path opacity="0.1" d="M76.8068 83.5301C73.0883 84.3882 64.9052 86.906 61.7612 92.9871C59.6644 97.0356 57.9 98.7722 56.6692 99.4989L55.4209 99.4113C55.4291 99.3863 55.4359 99.361 55.4413 99.3354L56.5669 99.0436L58.9846 89.3589L77.2701 78.7491C76.904 79.8611 76.7775 81.5716 76.8068 83.5301Z" fill="black"/>
<path opacity="0.1" d="M13.5186 86.5778L17.7883 89.1406C17.3594 89.2486 16.8114 89.664 16.2019 90.2643C15.846 89.2251 13.6133 87.7745 12.5972 87.1558C13.1481 86.785 13.5186 86.5778 13.5186 86.5778Z" fill="black"/>
<path opacity="0.1" d="M54.6597 99.5781C54.6129 99.6025 54.5597 99.6117 54.5074 99.6043C54.4551 99.597 54.4065 99.5736 54.3682 99.5372C54.4628 99.565 54.5611 99.5788 54.6597 99.5781Z" fill="black"/>
<path d="M64.3218 56.5254C64.3218 56.5254 60.4781 56.9515 57.7747 54.1029C57.7747 54.1029 46.4005 57.3806 42.5484 64.7856C38.6964 72.1907 12.5098 86.7206 12.5098 86.7206C12.5098 86.7206 17.0652 89.2835 16.6364 90.5647L33.8575 80.594C33.8575 80.594 39.9818 76.1808 41.6822 75.1826C43.3826 74.1845 52.7847 68.0608 54.7766 84.7244C56.7686 101.388 54.7766 99.3944 54.7766 99.3944C54.7766 99.3944 57.6231 100.393 61.7497 92.4155C65.8763 84.4381 78.6821 82.5877 78.6821 82.5877L79.3936 74.1871C79.3936 74.1871 81.9338 68.6179 79.977 66.3064C79.3841 65.6219 78.9898 64.7881 78.8367 63.8953C78.513 61.7617 78.8367 58.2066 83.3686 55.2528C90.3416 50.6935 93.045 46.9925 93.045 46.9925C93.045 46.9925 93.1878 44.284 88.9184 43.0024C84.649 41.7209 67.2878 34.7422 67.2878 34.7422L66.7044 37.1647L80.4026 46.8407C80.4026 46.8407 73.5726 52.3864 68.154 52.2521C68.1538 52.2521 69.1599 56.3823 64.3218 56.5254Z" fill="#FFC212"/>
<path opacity="0.1" d="M66.9581 49.8907C66.6216 48.7489 66.3586 47.5868 66.1708 46.4114L58.6291 48.4055C58.9616 49.8465 58.9022 51.3503 58.457 52.7604C59.999 53.1722 61.628 53.1196 63.1402 52.6091C64.6523 52.0986 65.9804 51.153 66.9581 49.8907Z" fill="black"/>
<path d="M60.694 52.6083C65.1733 52.6083 68.8045 48.9741 68.8045 44.491C68.8045 40.0079 65.1733 36.3737 60.694 36.3737C56.2147 36.3737 52.5835 40.0079 52.5835 44.491C52.5835 48.9741 56.2147 52.6083 60.694 52.6083Z" fill="#FEB9B9"/>
<path opacity="0.1" d="M69.5156 109.864C69.5156 109.864 74.2109 119.123 72.7877 121.968L69.5156 109.864Z" fill="black"/>
<path d="M65.007 25.7433C67.2583 26.0003 69.3961 26.9663 71.6126 27.4946C72.1666 27.667 72.7563 27.6891 73.3216 27.5587C74.1819 27.2931 74.8819 26.3913 75.7743 26.4175C76.3234 26.435 76.8095 26.8087 77.2616 27.1675C77.9865 27.7228 78.6688 28.3317 79.3029 28.9889C80.831 30.6497 81.7788 32.8856 83.1728 34.6924C84.5667 36.4991 86.5547 38.6178 88.5349 37.7893C87.1877 43.0432 82.9861 46.3298 78.2123 46.6569C76.308 46.7878 74.3568 46.3913 72.5137 46.9487C72.0546 47.1371 71.5698 47.2551 71.0756 47.2989C70.014 47.2989 69.1595 46.3241 68.4974 45.3754C66.9458 43.1455 65.7182 40.6149 63.9712 38.5804C63.3879 37.9063 62.7143 37.267 61.8977 37.1445C61.0811 37.022 60.3317 37.413 59.6056 37.7896C58.407 38.4114 57.1823 39.0533 56.2519 40.1247C55.3216 41.1961 54.7354 42.7778 55.1203 44.2111C55.3274 44.9876 55.8001 45.6881 55.8085 46.4994C55.826 47.7953 54.6828 48.7411 54.4582 50.002C54.4075 50.5316 54.389 51.0638 54.4028 51.5957C54.3037 53.3229 53.1738 54.7361 51.9972 55.825C51.5365 56.2453 51.0297 56.7007 50.8948 57.3515C50.8043 57.798 50.8948 58.2674 50.8365 58.7204C50.6644 59.8413 49.5474 60.4105 48.5588 60.5565C47.4037 60.7277 46.2238 60.5877 45.1408 60.1509C46.5232 59.4966 47.3748 57.6349 47.054 55.9682C46.6137 53.6563 44.2923 51.9956 44.4915 49.6432C44.6006 48.9214 44.8169 48.22 45.1332 47.5622C45.639 46.2909 46.0067 44.9689 46.2298 43.6189C46.4047 42.5768 46.4895 41.4706 46.1626 40.4754C45.8711 39.5704 45.2616 38.8497 44.7451 38.0848C44.0453 37.0441 43.4928 35.9116 43.1033 34.7193C42.9622 34.3657 42.9084 33.9832 42.9464 33.6042C43.0634 33.1567 43.3124 32.7549 43.6611 32.4512C44.9297 31.1165 46.2858 29.7308 47.9861 29.3485C48.7974 29.2137 49.6225 29.1823 50.4417 29.2551C51.8663 29.2998 53.2924 29.2393 54.7082 29.074C55.8746 28.9368 57.8459 28.9544 58.8348 28.1983C59.7562 27.4917 60.2755 26.6046 61.4098 26.1553C62.5585 25.7291 63.7933 25.5879 65.0085 25.7436L65.007 25.7433Z" fill="#2F2E41"/>
<path d="M215.708 195.122C222.206 195.122 227.473 194.23 227.473 193.13C227.473 192.031 222.206 191.139 215.708 191.139C209.21 191.139 203.943 192.031 203.943 193.13C203.943 194.23 209.21 195.122 215.708 195.122Z" fill="#FFC212"/>
<path d="M220.574 189.874C221.11 189.435 221.501 188.844 221.694 188.179C221.841 187.508 221.554 186.713 220.91 186.454C220.19 186.178 219.42 186.679 218.838 187.183C218.257 187.686 217.586 188.263 216.822 188.155C217.216 187.799 217.51 187.348 217.677 186.844C217.844 186.341 217.877 185.803 217.774 185.282C217.74 185.067 217.648 184.864 217.508 184.697C217.11 184.269 216.384 184.451 215.908 184.79C214.386 185.859 213.962 187.931 213.953 189.789C213.798 189.118 213.93 188.418 213.924 187.739C213.918 187.059 213.734 186.273 213.152 185.915C212.792 185.722 212.389 185.627 211.981 185.639C211.297 185.613 210.536 185.683 210.068 186.184C209.482 186.805 209.64 187.847 210.144 188.527C210.647 189.206 211.417 189.642 212.125 190.114C212.691 190.452 213.173 190.913 213.537 191.464C213.58 191.541 213.615 191.622 213.641 191.707H217.916C218.88 191.219 219.774 190.603 220.573 189.875L220.574 189.874Z" fill="#FFC212"/>
<path d="M55.7501 196C60.0382 196 63.5144 195.412 63.5144 194.686C63.5144 193.96 60.0382 193.372 55.7501 193.372C51.462 193.372 47.9858 193.96 47.9858 194.686C47.9858 195.412 51.462 196 55.7501 196Z" fill="#EFEFEF"/>
<path d="M58.9612 192.537C59.315 192.248 59.5728 191.857 59.7007 191.418C59.7569 191.198 59.7363 190.965 59.6422 190.758C59.5481 190.551 59.3862 190.382 59.1832 190.28C58.7081 190.098 58.2003 190.429 57.8162 190.761C57.4321 191.093 56.9897 191.474 56.4858 191.403C56.7452 191.168 56.9393 190.87 57.0493 190.538C57.1592 190.205 57.1813 189.85 57.1133 189.507C57.0907 189.365 57.03 189.231 56.9376 189.12C56.6762 188.838 56.1961 188.958 55.8815 189.182C54.8775 189.889 54.5974 191.254 54.5917 192.481C54.4894 192.039 54.5762 191.577 54.5723 191.128C54.5684 190.68 54.4468 190.162 54.0624 189.925C53.8254 189.797 53.559 189.735 53.29 189.743C52.8382 189.726 52.3362 189.772 52.0271 190.103C51.6409 190.512 51.7452 191.2 52.0773 191.649C52.4094 192.097 52.9172 192.385 53.3847 192.695C53.7584 192.918 54.0772 193.222 54.3174 193.585C54.3463 193.636 54.3696 193.69 54.3869 193.746H57.208C57.8441 193.423 58.4338 193.016 58.9612 192.536V192.537Z" fill="#EFEFEF"/>
<path d="M11.8395 196C16.1276 196 19.6038 195.412 19.6038 194.686C19.6038 193.96 16.1276 193.372 11.8395 193.372C7.55138 193.372 4.0752 193.96 4.0752 194.686C4.0752 195.412 7.55138 196 11.8395 196Z" fill="#EFEFEF"/>
<path d="M15.0511 192.537C15.4049 192.248 15.6627 191.857 15.7905 191.418C15.8468 191.198 15.8262 190.965 15.7321 190.758C15.638 190.551 15.476 190.382 15.273 190.28C14.7979 190.098 14.2901 190.429 13.906 190.761C13.5219 191.093 13.0795 191.474 12.5757 191.403C12.835 191.168 13.0291 190.87 13.1391 190.538C13.2491 190.205 13.2712 189.85 13.2032 189.507C13.1806 189.365 13.1199 189.231 13.0275 189.12C12.766 188.838 12.2859 188.958 11.9714 189.182C10.9673 189.889 10.6873 191.254 10.6815 192.481C10.5793 192.039 10.6661 191.577 10.6622 191.128C10.6582 190.68 10.5367 190.162 10.1523 189.925C9.91521 189.797 9.64881 189.735 9.37988 189.743C8.92805 189.726 8.42603 189.772 8.11696 190.103C7.73076 190.512 7.83508 191.2 8.16715 191.649C8.49923 192.097 9.00702 192.385 9.47454 192.695C9.84824 192.918 10.167 193.222 10.4072 193.585C10.4362 193.636 10.4595 193.69 10.4768 193.746H13.2978C13.9339 193.423 14.5237 193.016 15.0511 192.536V192.537Z" fill="#EFEFEF"/>
<path d="M236 195.25H0V195.727H236V195.25Z" fill="#2F2E41"/>
<path d="M224.48 13.2219C224.48 13.2219 199.843 11.7342 202.746 29.012C202.746 29.012 202.161 32.0663 204.935 33.4514C204.935 33.4514 204.979 32.1717 207.463 32.608C208.347 32.7547 209.245 32.7979 210.14 32.7367C211.346 32.6573 212.494 32.1876 213.411 31.3984C213.411 31.3984 220.337 28.5344 223.028 17.2073C223.028 17.2073 225.021 14.7359 224.942 14.1002L220.785 15.8776C220.785 15.8776 222.206 18.8793 221.077 21.3733C221.077 21.3733 220.942 15.9849 220.144 16.1022C219.983 16.1257 217.984 17.1416 217.984 17.1416C217.984 17.1416 220.428 22.3688 218.584 26.1702C218.584 26.1702 219.283 19.7277 217.221 17.5195L214.295 19.2297C214.295 19.2297 217.151 24.6299 215.213 29.0371C215.213 29.0371 215.71 22.2783 213.677 19.6456L211.026 21.7159C211.026 21.7159 213.709 27.0367 212.074 30.6921C212.074 30.6921 211.86 22.8262 210.453 22.2319C210.453 22.2319 208.132 24.2818 207.778 25.1192C207.778 25.1192 209.616 28.9848 208.475 31.0229C208.475 31.0229 207.776 25.7811 207.202 25.7518C207.202 25.7518 204.89 29.2248 204.65 31.6086C204.65 31.6086 204.75 28.0681 206.643 25.4239C206.643 25.4239 204.407 25.8075 203.102 27.2557C203.102 27.2557 203.462 24.8018 207.213 24.5851C207.213 24.5851 209.124 21.9496 209.633 21.7915C209.633 21.7915 205.905 21.4775 203.644 22.4826C203.644 22.4826 205.633 20.1663 210.318 21.2205L212.937 19.0798C212.937 19.0798 208.027 18.409 205.944 19.1502C205.944 19.1502 208.34 17.1003 213.642 18.5938L216.492 16.8894C216.492 16.8894 212.305 15.9873 209.812 16.3037C209.812 16.3037 212.445 14.8835 217.329 16.4238L219.377 15.5079C219.377 15.5079 216.31 14.9046 215.412 14.8081C214.514 14.7115 214.467 14.4655 214.467 14.4655C216.41 14.1413 218.404 14.3634 220.228 15.1069C220.228 15.1069 224.553 13.4944 224.48 13.2219Z" fill="#FFC212"/>
<path d="M190.724 4.07497C190.724 4.07497 179.606 3.40424 180.905 11.2115C180.905 11.2115 180.643 12.5909 181.894 13.2174C181.894 13.2174 181.914 12.6317 183.038 12.8337C183.437 12.901 183.842 12.9206 184.246 12.8924C184.792 12.8562 185.311 12.6422 185.724 12.2831C185.724 12.2831 188.854 10.9888 190.072 5.86996C190.072 5.86996 190.97 4.75434 190.934 4.46725L189.056 5.26962C189.056 5.26962 189.697 6.62548 189.193 7.75287C189.193 7.75287 189.132 5.31908 188.772 5.37508C188.699 5.37508 187.795 5.84614 187.795 5.84614C187.795 5.84614 188.901 8.20927 188.067 9.92549C188.067 9.92549 188.383 7.01462 187.45 6.01598L186.127 6.80108C186.127 6.80108 187.418 9.24036 186.543 11.2319C186.543 11.2319 186.768 8.17761 185.849 6.98871L184.652 7.92585C184.652 7.92585 185.864 10.3301 185.126 11.9822C185.126 11.9822 185.027 8.427 184.392 8.15772C184.392 8.15772 183.344 9.08308 183.183 9.46385C183.183 9.46385 184.014 11.2209 183.5 12.1316C183.5 12.1316 183.183 9.76245 182.914 9.75015C182.914 9.75015 181.87 11.3203 181.761 12.3857C181.814 11.3918 182.124 10.4289 182.663 9.59208C182.06 9.70636 181.504 9.99444 181.062 10.4209C181.062 10.4209 181.226 9.31102 182.92 9.21446C182.92 9.21446 183.798 8.02268 184.015 7.94941C184.015 7.94941 182.329 7.80888 181.308 8.26344C181.308 8.26344 182.206 7.21796 184.322 7.69242L185.492 6.72597C185.492 6.72597 183.272 6.43025 182.331 6.75633C182.331 6.75633 183.413 5.83096 185.81 6.50457L187.097 5.73439C187.097 5.73439 185.204 5.32745 184.078 5.4727C184.078 5.4727 185.269 4.83127 187.475 5.52504L188.397 5.11208C188.397 5.11208 187.011 4.83965 186.603 4.79568C186.195 4.75172 186.176 4.6405 186.176 4.6405C187.054 4.49425 187.956 4.59565 188.78 4.93334C188.78 4.93334 190.759 4.19692 190.724 4.07497Z" fill="#3F3D56"/>
<path d="M19.2634 123.262C19.2634 123.262 8.14493 122.591 9.44394 130.398C9.44394 130.398 9.18246 131.778 10.4328 132.404C10.4328 132.404 10.4532 131.819 11.5768 132.021C11.9758 132.088 12.3814 132.108 12.7851 132.079C13.3309 132.043 13.8498 131.829 14.2627 131.47C14.2627 131.47 17.3934 130.176 18.6105 125.057C18.6105 125.057 19.5087 123.941 19.4734 123.654L17.5949 124.457C17.5949 124.457 18.2358 125.812 17.7325 126.94C17.7325 126.94 17.671 124.506 17.3112 124.562C17.238 124.562 16.3338 125.033 16.3338 125.033C16.3338 125.033 17.4399 127.396 16.606 129.112C16.606 129.112 16.9219 126.202 15.9887 125.203L14.6661 125.988C14.6661 125.988 15.9565 128.427 15.0816 130.419C15.0816 130.419 15.307 127.364 14.3882 126.176L13.1914 127.113C13.1914 127.113 14.4028 129.517 13.6655 131.169C13.6655 131.169 13.5661 127.614 12.931 127.345C12.931 127.345 11.8835 128.27 11.7224 128.651C11.7224 128.651 12.5534 130.408 12.0386 131.318C12.0386 131.318 11.7224 128.949 11.4534 128.937C11.4534 128.937 10.4088 130.507 10.3005 131.573C10.3529 130.579 10.6635 129.616 11.2018 128.779C10.599 128.893 10.0428 129.181 9.60135 129.608C9.60135 129.608 9.7653 128.498 11.4594 128.401C11.4594 128.401 12.3372 127.21 12.5537 127.136C12.5537 127.136 10.8685 126.996 9.84714 127.45C9.84714 127.45 10.7453 126.405 12.8609 126.879L14.0313 125.913C14.0313 125.913 11.8113 125.617 10.87 125.943C10.87 125.943 11.9525 125.018 14.349 125.691L15.6365 124.921C15.6365 124.921 13.7434 124.514 12.617 124.66C12.617 124.66 13.8077 124.018 16.0141 124.712L16.9358 124.299C16.9358 124.299 15.5499 124.027 15.142 123.983C14.7341 123.939 14.7148 123.827 14.7148 123.827C15.5931 123.681 16.4948 123.783 17.3188 124.12C17.3188 124.12 19.2977 123.384 19.2634 123.262Z" fill="#3F3D56"/>
<defs>
<linearGradient id="paint0_linear" x1="54.7416" y1="100.544" x2="54.7416" y2="100.468" gradientUnits="userSpaceOnUse">
<stop stop-color="#808080" stop-opacity="0.251"/>
<stop offset="0.54" stop-color="#808080" stop-opacity="0.122"/>
<stop offset="1" stop-color="#808080" stop-opacity="0.102"/>
</linearGradient>
</defs>
</svg>
