<svg width="229" height="182" viewBox="0 0 229 182" fill="none" xmlns="http://www.w3.org/2000/svg">
<g clip-path="url(#clip0)">
<path opacity="0.1" d="M134.3 30.7572C119.811 30.2536 106.008 25.578 92.83 20.4615C79.652 15.345 66.5995 9.67572 52.4566 6.96528C43.3601 5.22173 32.9561 4.97553 25.6283 9.85029C18.5736 14.5505 16.2944 22.6415 15.0698 30.1573C14.1474 35.811 13.6056 41.7601 16.1332 47.0534C17.8863 50.7284 21.0005 53.8171 23.1521 57.349C30.6456 69.5963 25.3506 84.6996 17.2303 96.6582C13.4242 102.269 9.00246 107.625 6.06507 113.592C3.12768 119.559 1.76645 126.406 4.33667 132.498C6.88673 138.541 12.9608 143.071 19.5386 146.261C32.9023 152.74 48.6438 154.594 64.0046 155.643C97.9973 157.969 132.169 156.962 166.251 155.954C178.865 155.581 191.533 155.202 203.94 153.253C210.832 152.17 217.944 150.453 222.948 146.303C229.298 141.037 230.872 132.118 226.618 125.515C219.478 114.438 199.751 111.688 194.754 99.7983C192.009 93.2561 194.83 85.9686 198.82 79.8987C207.381 66.8814 221.73 55.46 222.487 40.5805C223.006 30.3588 216.106 20.1258 205.44 15.2891C194.262 10.2017 178.755 10.8463 170.512 19.2372C162.018 27.8833 147.093 31.2003 134.3 30.7572Z" fill="#FFC212"/>
<path d="M97.4914 154.546L20.8595 154.173L13.2451 136.319L40.1697 134.365L35.477 114.79L88.7307 107.889L37.7361 90.1673L42.2407 89.0974L124.239 102.471L119.723 133.02L113.269 149.808L97.4914 154.546Z" fill="#FFC212"/>
<path d="M22.0347 146.695C22.0347 146.695 26.7363 145.943 29.5572 149.264C29.5572 149.264 27.4885 150.894 23.0377 148.638L22.0347 146.695Z" fill="#FFC212"/>
<path d="M21.5424 146.621C21.5424 146.621 18.5423 150.312 20.02 154.421C20.02 154.421 22.4648 153.443 22.7312 148.461L21.5424 146.621Z" fill="#FFC212"/>
<path d="M18.8467 140.553C18.8467 140.553 20.7273 137.104 28.2499 141.932C28.2499 141.932 27.2469 144.251 23.9244 144.063C20.602 143.875 19.7243 142.371 18.8467 140.553Z" fill="#FFC212"/>
<path d="M18.3608 140.305C18.3608 140.305 14.4584 139.857 14.0801 148.787C14.0801 148.787 16.554 149.3 18.3115 146.475C20.069 143.651 19.3481 142.066 18.3608 140.305Z" fill="#FFC212"/>
<path d="M16.0884 133.181C16.0884 133.181 18.2825 127.102 26.2439 131.426C26.2439 131.426 24.4259 137.004 16.9033 135.249L16.0884 133.181Z" fill="#FFC212"/>
<path d="M13.6436 124.094C13.6436 124.094 17.781 117.952 25.1155 123.646C25.1155 123.646 22.5453 129.412 14.2704 126.278L13.6436 124.094Z" fill="#FFC212"/>
<path d="M12.7661 115.446C12.7661 115.446 17.5931 109.803 24.856 115.446C24.856 115.446 20.2797 120.396 12.7661 116.887V115.446Z" fill="#FFC212"/>
<path d="M12.0137 107.046C12.0137 107.046 16.9034 101.155 23.8617 106.732C23.8617 106.732 18.3452 111.934 12.0137 108.424V107.046Z" fill="#FFC212"/>
<path d="M12.4526 99.5878C12.4526 99.5878 17.602 92.0048 24.1126 97.1437C24.1126 97.1437 18.5961 103.661 12.4526 101.029V99.5878Z" fill="#FFC212"/>
<path d="M13.6436 90.8766C13.6436 90.8766 19.0974 83.3564 25.4289 89.1219C25.4289 89.1219 18.9721 95.6395 13.6436 92.2554V90.8766Z" fill="#FFC212"/>
<path d="M15.4618 83.0903C15.4618 83.0903 21.9187 76.0221 27.5516 78.8377C27.5516 78.8377 20.8239 86.3446 15.1797 84.9659L15.4618 83.0903Z" fill="#FFC212"/>
<path d="M17.7183 75.7086C17.7183 75.7086 25.1693 67.0513 29.5037 69.9431C29.5037 69.9431 24.014 76.6576 17.1899 77.3291L17.7183 75.7086Z" fill="#FFC212"/>
<path d="M20.976 67.1476C20.976 67.1476 27.4978 60.0794 32.2621 61.8341C32.2621 61.8341 26.6828 69.1664 20.1006 69.3545L20.976 67.1476Z" fill="#FFC212"/>
<path d="M23.9248 59.1396C23.9248 59.1396 31.1339 52.3713 34.2683 53.562C34.2683 53.562 29.0652 61.0823 23.6113 60.6436L23.9248 59.1396Z" fill="#FFC212"/>
<path d="M26.8081 51.7445C26.8081 51.7445 33.0142 43.6579 36.4016 44.2846C36.4016 44.2846 32.6381 51.4938 26.8081 52.5659V51.7445Z" fill="#FFC212"/>
<path d="M29.938 41.7732C29.938 41.7732 35.4233 35.5757 38.3875 35.5891C38.3875 35.5891 34.0575 43.8704 29.7119 43.7943L29.938 41.7732Z" fill="#FFC212"/>
<path d="M31.7921 35.1349L37.0915 22.2251C37.0915 22.2251 37.3557 33.895 31.1182 37.5298L31.7921 35.1349Z" fill="#FFC212"/>
<path d="M33.9435 20.8978C33.9435 20.8978 34.8212 10.1165 34.257 9.23914C34.257 9.23914 38.0451 18.2031 33.9077 25.6607L33.9435 20.8978Z" fill="#FFC212"/>
<path d="M15.8823 133.038C15.8823 133.038 10.3881 129.633 6.83057 137.962C6.83057 137.962 11.7202 141.207 16.5293 135.162L15.8823 133.038Z" fill="#FFC212"/>
<path d="M13.4667 123.747C13.4667 123.747 6.72773 120.674 3.45898 129.369C3.45898 129.369 8.66434 132.95 14.0802 125.945L13.4667 123.747Z" fill="#FFC212"/>
<path d="M12.4527 115.963C12.4527 115.963 7.62567 110.32 0.362793 115.963C0.362793 115.963 4.93903 120.913 12.4527 117.404V115.963Z" fill="#FFC212"/>
<path d="M11.8481 107.046C11.8481 107.046 6.95839 101.155 0 106.732C0 106.732 5.51656 111.934 11.8481 108.424V107.046Z" fill="#FFC212"/>
<path d="M12.4527 99.8027C12.4527 99.8027 9.0228 91.3088 1.56738 94.9615C1.56738 94.9615 5.59734 102.493 12.1483 101.213L12.4527 99.8027Z" fill="#FFC212"/>
<path d="M14.0759 90.8343C14.0759 90.8343 10.6661 82.1926 3.10547 86.199C3.10547 86.199 7.73544 94.1199 13.7401 92.1682L14.0759 90.8343Z" fill="#FFC212"/>
<path d="M16.1893 83.1327C16.1893 83.1327 14.846 73.6585 8.57715 72.8102C8.57715 72.8102 9.90703 82.8014 15.3452 84.8404L16.1893 83.1327Z" fill="#FFC212"/>
<path d="M17.8773 75.7266C17.8773 75.7266 17.3534 64.3118 12.1704 63.9135C12.1704 63.9135 12.345 72.5775 17.2929 77.3426L17.8773 75.7266Z" fill="#FFC212"/>
<path d="M21.5132 66.8276C21.5132 66.8276 19.9684 57.3355 15.0205 56.1761C15.0205 56.1761 15.634 65.3683 21.0229 69.1576L21.5132 66.8276Z" fill="#FFC212"/>
<path d="M24.5112 59.2179C24.5112 59.2179 24.4597 49.3297 21.4372 47.8771C21.4372 47.8771 19.5633 56.8298 23.6358 60.4803L24.5112 59.2179Z" fill="#FFC212"/>
<path d="M27.0386 51.6326C27.0386 51.6326 26.6154 41.4512 23.4855 40.0165C23.4855 40.0165 22.4153 48.0739 26.5707 52.2996L27.0386 51.6326Z" fill="#FFC212"/>
<path d="M30.3747 42.5857C30.3747 42.5857 30.3568 34.3044 28.1224 32.3617C28.1224 32.3617 25.9015 41.4331 29.2083 44.2509L30.3747 42.5857Z" fill="#FFC212"/>
<path d="M31.53 34.7276L29.356 20.9448C29.356 20.9448 26.403 32.2387 31.6329 37.2164L31.53 34.7276Z" fill="#FFC212"/>
<path d="M31.9531 21.0278C31.9531 21.0278 26.3739 11.7617 26.4881 10.7322C26.4881 10.7322 27.0814 20.4436 34.1002 25.2804L31.9531 21.0278Z" fill="#FFC212"/>
<path d="M32.6069 18.2905C32.6069 18.2905 27.3411 5.12995 24.959 4.06458C24.959 4.06458 32.4816 7.88739 33.0458 17.9144L32.6069 18.2905Z" fill="#FFC212"/>
<path d="M29.6852 43.8728L29.3247 43.7631C33.7688 29.2754 34.8771 20.0384 32.4479 17.7219L32.7054 17.4489C35.2823 19.8929 34.2368 29.0292 29.6852 43.8728Z" fill="#444053"/>
<path d="M17.4474 77.7947L16.9146 77.6044C17.387 76.2772 17.8952 74.9298 18.428 73.6025C23.0669 62.0446 27.0163 51.2923 29.5485 43.0379L30.0119 42.8141C27.4753 51.0842 23.5953 62.2482 18.9519 73.8219C18.4213 75.1245 17.9153 76.4652 17.4474 77.7947Z" fill="#444053"/>
<path d="M28.6595 157.537C28.5879 157.458 21.3854 149.349 16.3637 135.506C13.4212 127.402 11.7836 118.882 11.512 110.264C11.1673 99.4917 13.4285 87.4637 17.3017 76.5369L17.7227 77.0293C9.02691 101.553 12.4815 122.567 17.0644 135.222C22.0325 148.94 29.1543 156.959 29.2237 157.04L28.6595 157.537Z" fill="#444053"/>
<path d="M141.212 140.321C141.212 140.321 136.136 146.514 140.166 155.876L99.6429 173.446L95.754 174.26L93.9629 166.427L95.1607 156.541V151.138L141.212 140.321Z" fill="#D5D6DB"/>
<path d="M13.2451 136.319L69.3331 126.097L143.652 137.932L97.4913 154.546L13.2451 136.319Z" fill="#FFC212"/>
<path d="M13.2451 136.319L69.3331 126.097L143.652 137.932L97.4913 154.546L13.2451 136.319Z" fill="#FFC212"/>
<path d="M13.2453 136.316C13.2453 136.316 7.9996 146.252 14.0445 155.428L97.2183 173.446C97.2183 173.446 92.0555 165.531 97.4848 154.546L13.2453 136.316Z" fill="#FFC212"/>
<path opacity="0.1" d="M13.2453 136.316C13.2453 136.316 7.9996 146.252 14.0445 155.428L97.2183 173.446C97.2183 173.446 92.0555 165.531 97.4848 154.546L13.2453 136.316Z" fill="black"/>
<path opacity="0.1" d="M15.7235 139.761C15.7235 139.761 12.7256 147.031 15.7235 151.735V139.761Z" fill="black"/>
<path d="M97.2182 173.446L143.652 153.638C143.652 153.638 146.249 154.197 144.57 156.1C142.891 158.002 98.1138 175.348 98.1138 175.348L14.0444 155.428L97.2182 173.446Z" fill="#FFC212"/>
<path opacity="0.1" d="M97.2182 173.446L143.652 153.638C143.652 153.638 146.249 154.197 144.57 156.1C142.891 158.002 98.1138 175.348 98.1138 175.348L14.0444 155.428L97.2182 173.446Z" fill="black"/>
<path opacity="0.1" d="M93.412 156.547C93.412 156.547 88.9342 161.919 93.412 169.977V156.547Z" fill="black"/>
<path opacity="0.1" d="M115.09 156.457L95.0059 163.155L95.0767 163.368L115.161 156.669L115.09 156.457Z" fill="black"/>
<path opacity="0.1" d="M119.113 155.79L94.9995 164.957L95.0791 165.166L119.193 155.999L119.113 155.79Z" fill="black"/>
<path opacity="0.1" d="M122.808 155.758L95.1338 167.082L95.2186 167.289L122.892 155.965L122.808 155.758Z" fill="black"/>
<path opacity="0.1" d="M126.825 154.788L95.457 168.954L95.5492 169.158L126.917 154.992L126.825 154.788Z" fill="black"/>
<path opacity="0.1" d="M130.201 154.793L95.7056 169.866L95.7952 170.071L130.29 154.998L130.201 154.793Z" fill="black"/>
<path opacity="0.1" d="M137.583 153.539L96.2256 171.396L96.3144 171.602L137.672 153.745L137.583 153.539Z" fill="black"/>
<path opacity="0.3" d="M34.082 137.411L73.486 129.13L97.4912 133.718L65.2023 144.126L34.082 137.411Z" fill="white"/>
<path d="M143.652 137.932C143.652 137.932 145.689 138.754 144.494 140.023C143.298 141.292 97.4844 154.547 97.4844 154.547L143.652 137.932Z" fill="#FFC212"/>
<path d="M163.442 118.794C163.442 118.794 158.368 124.985 162.398 134.349L121.875 151.919L117.986 152.738L116.195 144.904L117.411 135.021V129.611L163.442 118.794Z" fill="#D5D6DB"/>
<path d="M35.4771 114.79L91.5628 104.57L165.884 116.406L119.723 133.02L35.4771 114.79Z" fill="#3A3768"/>
<path d="M35.468 114.789C35.468 114.789 30.2201 124.725 36.2651 133.901L119.439 151.919C119.439 151.919 114.278 143.998 119.714 133.017L35.468 114.789Z" fill="#3A3768"/>
<path opacity="0.1" d="M35.468 114.789C35.468 114.789 30.2201 124.725 36.2651 133.901L119.439 151.919C119.439 151.919 114.278 143.998 119.714 133.017L93.4121 127.325L35.468 114.789Z" fill="black"/>
<path opacity="0.1" d="M37.953 118.234C37.953 118.234 34.9574 125.502 37.953 130.208V118.234Z" fill="black"/>
<path d="M119.448 151.919L165.884 132.111C165.884 132.111 168.479 132.671 166.8 134.573C165.121 136.475 120.343 153.821 120.343 153.821L36.2739 133.902L119.448 151.919Z" fill="#3A3768"/>
<path opacity="0.1" d="M119.448 151.919L165.884 132.111C165.884 132.111 168.479 132.671 166.8 134.573C165.121 136.475 120.343 153.821 120.343 153.821L36.2739 133.902L119.448 151.919Z" fill="black"/>
<path opacity="0.1" d="M115.642 135.021C115.642 135.021 111.164 140.392 115.642 148.45V135.021Z" fill="black"/>
<path opacity="0.1" d="M137.322 134.932L117.237 141.631L117.308 141.843L137.393 135.144L137.322 134.932Z" fill="black"/>
<path opacity="0.1" d="M141.348 134.264L117.234 143.431L117.313 143.64L141.427 134.474L141.348 134.264Z" fill="black"/>
<path opacity="0.1" d="M145.039 134.229L117.365 145.553L117.45 145.76L145.123 134.436L145.039 134.229Z" fill="black"/>
<path opacity="0.1" d="M149.059 133.26L117.69 147.426L117.783 147.63L149.151 133.464L149.059 133.26Z" fill="black"/>
<path opacity="0.1" d="M152.431 133.262L117.936 148.335L118.025 148.54L152.52 133.467L152.431 133.262Z" fill="black"/>
<path opacity="0.1" d="M159.815 132.008L118.458 149.866L118.546 150.071L159.904 132.214L159.815 132.008Z" fill="black"/>
<path opacity="0.45" d="M56.314 115.884L95.718 107.603L119.723 112.191L87.4342 122.599L56.314 115.884Z" fill="white"/>
<path d="M165.884 116.406C165.884 116.406 167.919 117.227 166.726 118.494C165.533 119.761 119.723 133.017 119.723 133.017L165.884 116.406Z" fill="#3A3768"/>
<path d="M165.546 94.1671C165.546 94.1671 160.471 105.284 164.501 114.646L123.977 127.292L120.097 128.114L118.306 120.28L119.504 110.394V104.984L165.546 94.1671Z" fill="#D5D6DB"/>
<path d="M37.5884 90.1653L93.6764 79.9435L167.998 91.779L121.835 108.393L37.5884 90.1653Z" fill="#FFC212"/>
<path d="M37.5884 90.1628C37.5884 90.1628 32.3338 100.098 38.3787 109.275L121.553 127.292C121.553 127.292 116.39 119.371 121.826 108.393L37.5884 90.1628Z" fill="#FFC212"/>
<path opacity="0.1" d="M37.5884 90.1628C37.5884 90.1628 32.3338 100.098 38.3787 109.275L121.553 127.292C121.553 127.292 116.39 119.371 121.826 108.393L37.5884 90.1628Z" fill="black"/>
<path opacity="0.1" d="M40.0668 93.6075C40.0668 93.6075 37.0689 100.877 40.0668 105.582V93.6075Z" fill="black"/>
<path d="M121.561 127.292L167.996 112.408C167.996 112.408 170.593 112.968 168.913 114.87C167.234 116.773 122.457 129.195 122.457 129.195L38.3877 109.275L121.561 127.292Z" fill="#FFC212"/>
<path opacity="0.1" d="M121.561 127.292L167.996 112.408C167.996 112.408 170.593 112.968 168.913 114.87C167.234 116.773 122.457 129.195 122.457 129.195L38.3877 109.275L121.561 127.292Z" fill="black"/>
<path opacity="0.1" d="M117.755 110.394C117.755 110.394 113.277 115.765 117.755 123.823V110.394Z" fill="black"/>
<path opacity="0.1" d="M139.436 110.305L119.352 117.004L119.422 117.216L139.507 110.517L139.436 110.305Z" fill="black"/>
<path opacity="0.1" d="M143.46 109.638L119.346 118.805L119.426 119.014L143.54 109.848L143.46 109.638Z" fill="black"/>
<path opacity="0.1" d="M147.149 109.604L119.476 120.928L119.56 121.135L147.234 109.812L147.149 109.604Z" fill="black"/>
<path opacity="0.1" d="M151.173 108.633L119.804 122.799L119.896 123.003L151.265 108.837L151.173 108.633Z" fill="black"/>
<path opacity="0.1" d="M154.545 108.637L120.05 123.71L120.14 123.915L154.635 108.842L154.545 108.637Z" fill="black"/>
<path opacity="0.1" d="M161.93 107.385L120.572 125.242L120.661 125.448L162.018 107.591L161.93 107.385Z" fill="black"/>
<path opacity="0.3" d="M58.4253 91.2575L97.8293 82.9762L121.834 87.5645L89.5455 97.9721L58.4253 91.2575Z" fill="white"/>
<path d="M167.995 91.7788C167.995 91.7788 170.033 92.6002 168.837 93.8693C167.642 95.1383 121.834 108.393 121.834 108.393L167.995 91.7788Z" fill="#FFC212"/>
<path d="M69.4987 23.8367C69.4987 23.8367 60.991 23.3242 61.9851 29.2911C61.9851 29.2911 61.7858 30.3453 62.7418 30.8243C62.7418 30.8243 62.7575 30.3767 63.615 30.5311C63.921 30.5837 64.2322 30.5987 64.5419 30.5759C64.9593 30.5473 65.3561 30.3839 65.6725 30.1103C65.6725 30.1103 68.0659 29.121 68.9972 25.2087C68.9972 25.2087 69.6868 24.356 69.6689 24.1366L68.227 24.7499C68.227 24.7499 68.7174 25.7862 68.3323 26.6479C68.3323 26.6479 68.2853 24.7879 68.0076 24.8305C67.9517 24.8305 67.2621 25.1908 67.2621 25.1908C67.2621 25.1908 68.1061 26.997 67.4681 28.3086C67.4681 28.3086 67.7099 26.0838 66.9979 25.3206L65.9859 25.9115C65.9859 25.9115 66.9733 27.7759 66.3039 29.2979C66.3039 29.2979 66.4763 26.9634 65.7732 26.0547L64.8553 26.771C64.8553 26.771 65.7844 28.6085 65.218 29.8708C65.218 29.8708 65.1441 27.1537 64.6583 26.9478C64.6583 26.9478 63.8545 27.655 63.7336 27.946C63.7336 27.946 64.3695 29.2889 63.9732 29.985C63.9732 29.985 63.7336 28.1743 63.5254 28.1653C63.5254 28.1653 62.7262 29.365 62.6433 30.1797C62.682 29.4202 62.919 28.684 63.3306 28.0445C62.87 28.1316 62.445 28.3518 62.1082 28.6779C62.1082 28.6779 62.2314 27.8296 63.5299 27.7558C63.5299 27.7558 64.1904 26.8448 64.3672 26.7911C64.3672 26.7911 63.0754 26.6814 62.2941 27.0283C62.2941 27.0283 62.9836 26.2293 64.6023 26.5807L65.4979 25.8421C65.4979 25.8421 63.8008 25.6183 63.0799 25.8667C63.0799 25.8667 63.9105 25.1595 65.7419 25.6742L66.7292 25.0856C66.7292 25.0856 65.2807 24.7745 64.4187 24.8864C64.4187 24.8864 65.3277 24.3962 67.0181 24.9267L67.7211 24.6111C67.7211 24.6111 66.6621 24.403 66.3509 24.3694C66.0397 24.3358 66.024 24.2508 66.024 24.2508C66.6961 24.1404 67.3857 24.2179 68.0166 24.4746C68.0166 24.4746 69.5278 23.9307 69.4987 23.8367Z" fill="#FFC212"/>
<path opacity="0.1" d="M189.189 48.3626C189.189 48.3626 180.681 47.85 181.675 53.817C181.675 53.817 181.476 54.8712 182.432 55.3502C182.432 55.3502 182.447 54.9025 183.305 55.057C183.611 55.1083 183.922 55.1233 184.232 55.1017C184.645 55.0713 185.038 54.908 185.351 54.6362C185.351 54.6362 187.747 53.6469 188.676 49.7346C188.676 49.7346 189.366 48.8818 189.348 48.6625L187.91 49.2758C187.91 49.2758 188.401 50.312 188.015 51.1737C188.015 51.1737 187.968 49.3138 187.693 49.3563C187.637 49.3563 186.945 49.7167 186.945 49.7167C186.945 49.7167 187.789 51.5229 187.154 52.8345C187.154 52.8345 187.395 50.6097 186.681 49.8465L185.669 50.4374C185.669 50.4374 186.657 52.3018 185.987 53.8237C185.987 53.8237 186.159 51.4893 185.456 50.5806L184.541 51.2968C184.541 51.2968 185.468 53.1344 184.901 54.3967C184.901 54.3967 184.827 51.6796 184.342 51.4737C184.342 51.4737 183.54 52.1809 183.417 52.4719C183.417 52.4719 184.053 53.8148 183.659 54.5109C183.659 54.5109 183.417 52.7002 183.211 52.6912C183.211 52.6912 182.412 53.8909 182.329 54.7056C182.368 53.9457 182.605 53.2094 183.018 52.5704C182.557 52.6577 182.131 52.8779 181.794 53.2038C181.794 53.2038 181.919 52.3555 183.215 52.2816C183.215 52.2816 183.876 51.3707 184.053 51.3147C184.053 51.3147 182.763 51.2073 181.98 51.5542C181.98 51.5542 182.669 50.7552 184.288 51.1066L185.183 50.368C185.183 50.368 183.484 50.1442 182.765 50.3926C182.765 50.3926 183.594 49.6853 185.427 50.2001L186.412 49.6115C186.412 49.6115 184.964 49.3004 184.102 49.4123C184.102 49.4123 185.011 48.9221 186.701 49.4526L187.407 49.137C187.407 49.137 186.345 48.9288 186.034 48.8953C185.723 48.8617 185.707 48.7766 185.707 48.7766C186.379 48.6649 187.069 48.7424 187.7 49.0005C187.7 49.0005 189.216 48.4566 189.189 48.3626Z" fill="#FFC212"/>
<path opacity="0.1" d="M83.8275 60.6995C83.8275 60.6995 80.1199 53.0158 75.4004 56.8029C75.4004 56.8029 74.3817 57.1431 74.4309 58.2107C74.4309 58.2107 74.8227 58.007 75.1026 58.8307C75.2071 59.1218 75.3454 59.3998 75.5145 59.6588C75.7436 60.0099 76.0807 60.277 76.475 60.4198C76.475 60.4198 78.5057 62.0268 82.3767 60.9301C82.3767 60.9301 83.4581 61.1158 83.6349 60.986L82.3991 60.0303C82.3991 60.0303 81.7274 60.9637 80.7916 61.0465C80.7916 61.0465 82.3946 60.0997 82.2222 59.8804C82.1864 59.8356 81.5505 59.4036 81.5505 59.4036C81.5505 59.4036 80.3841 61.0218 78.9288 61.1047C78.9288 61.1047 80.9886 60.2318 81.3065 59.2358L80.299 58.6404C80.299 58.6404 79.1505 60.4131 77.4959 60.5697C77.4959 60.5697 79.6184 59.5827 80.0684 58.5263L78.9982 58.0786C78.9982 58.0786 77.8452 59.7841 76.4661 59.9072C76.4661 59.9072 78.8034 58.5173 78.7452 57.9913C78.7452 57.9913 77.7355 57.6377 77.4221 57.6713C77.4221 57.6713 76.5668 58.8777 75.7608 58.8777C75.7608 58.8777 77.2228 57.7832 77.1332 57.6064C77.1332 57.6064 75.6959 57.4945 74.9392 57.8302C75.621 57.4914 76.3798 57.337 77.14 57.3826C76.8384 57.0231 76.4385 56.7594 75.9892 56.6238C75.9892 56.6238 76.7907 56.3194 77.487 57.4139C77.487 57.4139 78.6064 57.5459 78.7385 57.6735C78.7385 57.6735 78.2034 56.4962 77.5206 55.9837C77.5206 55.9837 78.5549 56.1918 79.0273 57.7742L80.1132 58.204C80.1132 58.204 79.4885 56.6104 78.9131 56.1068C78.9131 56.1068 79.9341 56.485 80.3796 58.345L81.3737 58.918C81.3737 58.918 80.9416 57.5012 80.4221 56.8051C80.4221 56.8051 81.2931 57.3602 81.6535 59.0925L82.2737 59.5536C82.2737 59.5536 81.9379 58.5263 81.8259 58.2398C81.714 57.9533 81.7699 57.8951 81.7699 57.8951C82.1958 58.4265 82.4656 59.0658 82.5491 59.7416C82.5491 59.7416 83.7469 60.7667 83.8275 60.6995Z" fill="#FFC212"/>
<path opacity="0.1" d="M169.751 37.5073C169.751 37.5073 166.045 29.8236 161.324 33.6106C161.324 33.6106 160.307 33.9508 160.354 35.0184C160.354 35.0184 160.748 34.817 161.026 35.6384C161.13 35.9307 161.269 36.2095 161.44 36.4688C161.668 36.8192 162.005 37.0856 162.398 37.2275C162.398 37.2275 164.431 38.8345 168.3 37.74C168.3 37.74 169.381 37.9236 169.56 37.7938L168.331 36.8358C168.331 36.8358 167.66 37.7714 166.726 37.8542C166.726 37.8542 168.327 36.9052 168.154 36.6859C168.118 36.6411 167.483 36.2091 167.483 36.2091C167.483 36.2091 166.318 37.8273 164.861 37.9102C164.861 37.9102 166.923 37.0373 167.241 36.0435L166.218 35.4526C166.218 35.4526 165.071 37.223 163.415 37.3819C163.415 37.3819 165.537 36.3927 165.989 35.3362L164.917 34.8886C164.917 34.8886 163.764 36.5963 162.387 36.7172C162.387 36.7172 164.722 35.3273 164.664 34.8036C164.664 34.8036 163.656 34.4477 163.343 34.4835C163.343 34.4835 162.488 35.6876 161.68 35.6876C161.68 35.6876 163.144 34.5932 163.054 34.4163C163.054 34.4163 161.617 34.3044 160.858 34.6402C161.54 34.3012 162.299 34.1469 163.059 34.1925C162.758 33.8328 162.359 33.569 161.91 33.4338C161.91 33.4338 162.712 33.1294 163.408 34.2239C163.408 34.2239 164.527 34.3582 164.659 34.4857C164.659 34.4857 164.124 33.3062 163.439 32.7937C163.439 32.7937 164.474 33.0041 164.946 34.5954L166.034 35.0251C166.034 35.0251 165.409 33.4293 164.834 32.9257C164.834 32.9257 165.855 33.304 166.298 35.1639L167.295 35.7369C167.295 35.7369 166.86 34.3223 166.341 33.624C166.341 33.624 167.214 34.1791 167.572 35.9115L168.192 36.3725C168.192 36.3725 167.859 35.3452 167.745 35.0587C167.63 34.7722 167.689 34.7163 167.689 34.7163C168.113 35.2482 168.382 35.8873 168.466 36.5628C168.466 36.5628 169.681 37.5789 169.751 37.5073Z" fill="#FFC212"/>
<path opacity="0.1" d="M181.592 75.5139C181.592 75.5139 177.887 67.828 173.158 71.615C173.158 71.615 172.142 71.9552 172.189 73.0228C172.189 73.0228 172.583 72.8214 172.86 73.6428C172.964 73.9351 173.102 74.2138 173.272 74.4732C173.5 74.8237 173.837 75.0901 174.23 75.2319C174.23 75.2319 176.263 76.8412 180.134 75.7445C180.134 75.7445 181.214 75.9302 181.393 75.7982L180.157 74.8425C180.157 74.8425 179.485 75.778 178.549 75.8608C178.549 75.8608 180.15 74.9119 179.978 74.6925C179.942 74.6478 179.306 74.2158 179.306 74.2158C179.306 74.2158 178.142 75.834 176.684 75.919C176.684 75.919 178.746 75.0439 179.064 74.0502L178.054 73.4548C178.054 73.4548 176.908 75.2274 175.251 75.3841C175.251 75.3841 177.374 74.3948 177.826 73.3384L176.754 72.8908C176.754 72.8908 175.601 74.5963 174.224 74.7194C174.224 74.7194 176.561 73.3295 176.503 72.8035C176.503 72.8035 175.493 72.4476 175.18 72.4834C175.18 72.4834 174.324 73.6876 173.516 73.6876C173.516 73.6876 174.98 72.5931 174.891 72.4163C174.891 72.4163 173.454 72.3044 172.695 72.6401C173.377 72.3014 174.137 72.1471 174.898 72.1925C174.597 71.8322 174.197 71.5683 173.747 71.4337C173.747 71.4337 174.548 71.1271 175.245 72.2238C175.245 72.2238 176.364 72.3558 176.496 72.4834C176.496 72.4834 175.961 71.3061 175.278 70.7914C175.278 70.7914 176.313 71.0017 176.785 72.5931L177.871 73.0228C177.871 73.0228 177.246 71.427 176.671 70.9256C176.671 70.9256 177.692 71.3017 178.135 73.1638L179.131 73.7346C179.131 73.7346 178.697 72.32 178.178 71.6217C178.178 71.6217 179.051 72.1768 179.411 73.9114L180.031 74.359C180.031 74.359 179.696 73.3317 179.584 73.0452C179.472 72.7587 179.528 72.7028 179.528 72.7028C179.953 73.2341 180.222 73.8735 180.305 74.5493C180.305 74.5493 181.522 75.5811 181.592 75.5139Z" fill="#FFC212"/>
<path opacity="0.1" d="M45.214 175.509C48.0567 175.509 50.3612 175.252 50.3612 174.934C50.3612 174.616 48.0567 174.359 45.214 174.359C42.3713 174.359 40.0669 174.616 40.0669 174.934C40.0669 175.252 42.3713 175.509 45.214 175.509Z" fill="#FFC212"/>
<path opacity="0.1" d="M11.4719 165.733C14.3145 165.733 16.619 165.475 16.619 165.158C16.619 164.84 14.3145 164.583 11.4719 164.583C8.62916 164.583 6.32471 164.84 6.32471 165.158C6.32471 165.475 8.62916 165.733 11.4719 165.733Z" fill="#FFC212"/>
<path opacity="0.1" d="M70.9338 182.002C73.7765 182.002 76.0809 181.745 76.0809 181.427C76.0809 181.109 73.7765 180.852 70.9338 180.852C68.0911 180.852 65.7866 181.109 65.7866 181.427C65.7866 181.745 68.0911 182.002 70.9338 182.002Z" fill="#FFC212"/>
<path opacity="0.1" d="M202.736 167.859C205.579 167.859 207.883 167.602 207.883 167.284C207.883 166.966 205.579 166.709 202.736 166.709C199.893 166.709 197.589 166.966 197.589 167.284C197.589 167.602 199.893 167.859 202.736 167.859Z" fill="#FFC212"/>
<path opacity="0.1" d="M159.904 165.068C162.747 165.068 165.051 164.81 165.051 164.493C165.051 164.175 162.747 163.917 159.904 163.917C157.061 163.917 154.757 164.175 154.757 164.493C154.757 164.81 157.061 165.068 159.904 165.068Z" fill="#FFC212"/>
<path opacity="0.1" d="M132.196 178.681C135.558 178.681 138.283 178.213 138.283 177.636C138.283 177.058 135.558 176.59 132.196 176.59C128.834 176.59 126.108 177.058 126.108 177.636C126.108 178.213 128.834 178.681 132.196 178.681Z" fill="#FFC212"/>
<path d="M134.912 167.13C134.912 167.13 126.436 171.508 130.815 176.664C130.815 176.664 131.227 177.783 132.418 177.705C132.418 177.705 132.181 177.271 133.09 176.924C133.413 176.799 133.72 176.636 134.005 176.438C134.39 176.172 134.678 175.788 134.825 175.344C134.825 175.344 136.558 173.025 135.214 168.734C135.214 168.734 135.389 167.521 135.237 167.324L134.207 168.737C134.207 168.737 135.27 169.451 135.393 170.5C135.393 170.5 134.274 168.739 134.05 168.934C134.001 168.974 133.54 169.706 133.54 169.706C133.54 169.706 135.384 170.957 135.521 172.582C135.521 172.582 134.482 170.306 133.36 169.981L132.718 171.127C132.718 171.127 134.733 172.354 134.957 174.198C134.957 174.198 133.786 171.859 132.59 171.387L132.118 172.598C132.118 172.598 134.061 173.833 134.24 175.368C134.24 175.368 132.615 172.801 132.031 172.882C132.031 172.882 131.663 174.019 131.713 174.37C131.713 174.37 133.085 175.288 133.11 176.19C133.11 176.19 131.842 174.589 131.648 174.695C131.648 174.695 131.567 176.304 131.957 177.141C131.957 177.141 131.285 175.946 131.395 174.695C131.002 175.042 130.72 175.496 130.582 176.002C130.582 176.002 130.217 175.118 131.419 174.303C131.419 174.303 131.534 173.052 131.672 172.897C131.672 172.897 130.372 173.533 129.819 174.312C129.819 174.312 130.022 173.15 131.787 172.573L132.234 171.346C132.234 171.346 130.47 172.094 129.926 172.752C129.926 172.752 130.318 171.599 132.373 171.046L132.982 169.927C132.982 169.927 131.415 170.456 130.649 171.046C130.649 171.046 131.242 170.055 133.17 169.598L133.665 168.893C133.665 168.893 132.528 169.298 132.21 169.444C131.892 169.589 131.829 169.518 131.829 169.518C132.41 169.026 133.116 168.706 133.869 168.591C133.869 168.591 134.99 167.206 134.912 167.13Z" fill="#FFC212"/>
<path d="M160.07 84.4443C158.606 80.467 150.546 80.0932 147.049 81.1071C144.564 81.8301 139.325 82.6448 136.526 83.0544L136.345 82.882C136.707 82.7746 136.716 82.5105 136.672 82.1188C136.645 81.6026 136.653 81.0852 136.694 80.57C138.409 81.1027 139.936 79.8426 139.936 79.8426C141.951 78.9473 141.409 75.1155 141.794 74.0681C142.083 73.2847 142.394 68.6696 142.533 66.3687H142.562L142.578 65.5965C142.598 65.263 142.607 65.0683 142.607 65.0683C142.607 65.0683 142.804 59.4415 143.189 58.3023C143.547 57.2548 143.838 51.9772 143.883 51.1401C143.883 51.0685 143.883 51.0305 143.883 51.0305L143.854 50.5425C143.874 50.1867 143.883 49.7905 143.881 49.3742C143.881 47.4605 143.681 45.05 143.657 44.6606C143.657 44.6046 143.657 44.5375 143.657 44.4569C143.672 43.64 143.569 39.5486 140.088 38.002C138.805 37.429 137.263 36.7464 135.769 36.0816C135.384 32.7579 134.504 29.4521 134.58 26.1038C134.58 25.6002 134.625 25.0966 134.674 24.5953C134.674 24.7408 134.659 24.8885 134.657 25.0429C134.657 25.3675 134.657 25.6942 134.657 26.0188C134.789 21.8311 136.372 17.6211 136.224 13.523C136.21 13.9236 136.181 14.3265 136.143 14.7294C136.22 13.3432 136.075 11.9536 135.713 10.6134C135.579 10.1411 135.398 9.65318 135.01 9.33759C134.644 9.08343 134.224 8.91722 133.783 8.85191C132.724 8.58081 131.648 8.38043 130.562 8.25208C130.397 7.74708 130.152 7.27179 129.836 6.84426C127.566 3.72871 124.203 0.801169 120.227 0.129715C118.232 -0.206013 115.937 0.07376 114.581 1.49948C114.439 1.62473 114.306 1.75932 114.182 1.90235C113.452 2.77301 113.139 3.91672 112.391 4.78513C112.342 4.84333 112.286 4.89704 112.232 4.953C110.768 6.26233 108.486 6.53539 106.859 7.71044C106.572 7.92138 106.303 8.15569 106.055 8.41099C105.399 9.06071 104.811 9.77538 104.3 10.544C103.568 11.5735 102.815 12.6456 102.583 13.8744C102.115 16.3364 103.792 18.6708 104.103 21.1485C104.797 26.6925 98.6601 31.612 99.822 37.0821C100.132 38.4259 100.817 39.6544 101.797 40.6251C99.4034 42.7917 97.366 44.8934 97.366 44.8934V45.0187H96.9876L97.0257 45.4663H96.9876L97.1958 47.8948L96.9876 51.4311C96.9876 51.4311 96.9876 51.4691 96.9876 51.5408V51.5587V51.6549C96.9876 51.6549 96.9876 51.693 96.9876 51.7646H97.0011C97.0705 53.0605 97.3458 57.7204 97.6727 58.7029C98.0578 59.8422 98.2526 65.469 98.2526 65.469C98.2526 65.469 98.678 73.4212 99.0675 74.4732C99.4571 75.5251 98.9041 79.3457 100.926 80.2477C101.517 80.7012 102.217 80.9914 102.956 81.0892C102.853 81.9263 102.918 82.5329 103.252 82.7231C103.395 82.807 103.557 82.8532 103.722 82.8574C103.585 83.0608 103.463 83.274 103.357 83.4953C102.555 83.4115 101.766 83.2257 101.011 82.9424C98.8392 82.0472 91.6323 80.0328 89.5389 81.4496C87.4456 82.8663 82.4081 84.1511 84.7343 89.854C87.0605 95.5568 88.1441 95.7001 88.1441 95.7001C88.8601 96.2197 89.4883 96.8507 90.0046 97.569C90.7031 98.6187 97.2115 101.02 98.8392 101.02C99.531 101.01 100.223 101.044 100.91 101.123C100.91 101.123 99.1437 102.672 99.3787 103.572C99.6138 104.472 98.8414 111.674 98.8414 111.674C98.8414 111.674 100.632 113.478 101.398 111.112L101.425 111.148C101.568 111.343 102.343 112.222 103.8 111.112C104.397 110.66 105.031 110.258 105.695 109.913L112.751 108.914C113.487 108.868 114.225 108.863 114.961 108.899C116.081 108.99 117.18 108.328 117.872 107.815C119.334 108.37 120.977 108.977 121.758 109.199C123.344 109.646 130.629 111.6 132.333 110.989C132.687 110.848 133.002 110.624 133.251 110.336L134.876 110.387L134.115 110.539C134.115 110.539 135.597 110.564 137.612 110.591L137.527 110.64L140.054 110.618C143.753 110.651 147.908 110.662 148.455 110.539C149.31 110.349 153.754 110.483 155.064 110.539H155.429C155.429 110.539 160.312 109.566 158.297 104.613C156.747 100.808 151.985 99.702 149.872 99.3976C150.467 99.2789 150.98 99.1872 151.32 99.1335C152.796 98.9096 155.662 97.5667 155.894 97.1079C156.127 96.6491 158.53 95.3174 159.15 94.5586C159.77 93.7999 161.541 88.4215 160.07 84.4443ZM119.625 95.5747L119.385 95.6531L119.224 95.7068L118.915 96.0112C118.669 95.8456 118.405 95.671 118.129 95.4919C118.615 95.521 119.114 95.5501 119.625 95.5747Z" fill="url(#paint0_linear)"/>
<path d="M133.9 71.9754C133.9 71.9754 137.325 80.9282 139.273 80.0329C141.221 79.1376 140.693 75.3327 141.064 74.2897C141.436 73.2467 141.848 65.337 141.848 65.337C141.848 65.337 142.036 59.7415 142.408 58.609C142.752 57.5683 143.032 52.3197 143.079 51.4938C143.079 51.4222 143.079 51.3842 143.079 51.3842L142.71 44.8934L140.619 44.3719L135.769 46.1625L135.098 49.9965L134.836 51.4938L134.724 52.1317L133.9 71.9754Z" fill="#BE6F72"/>
<path opacity="0.1" d="M135.028 70.476C135.028 70.476 138.297 73.1506 139.282 73.3856C140.267 73.6206 140.872 75.7066 140.872 75.7066" fill="black"/>
<path d="M107.112 72.3671C107.112 72.3671 103.686 81.3198 101.739 80.4245C99.7909 79.5292 100.319 75.7243 99.9476 74.6813C99.5759 73.6383 99.164 65.7286 99.164 65.7286C99.164 65.7286 98.9759 60.1331 98.6043 59.0006C98.2595 57.9599 97.9796 52.7113 97.9326 51.8854C97.9326 51.8138 97.9326 51.7758 97.9326 51.7758L98.3043 45.285L100.395 44.7635L105.245 46.5541L105.916 50.3881L106.178 51.8854L106.29 52.5233L107.112 72.3671Z" fill="#BE6F72"/>
<path d="M129.418 24.4565H121.772V36.3704H129.418V24.4565Z" fill="#3E373A"/>
<path opacity="0.1" d="M129.418 24.4565H121.772V36.3704H129.418V24.4565Z" fill="black"/>
<path d="M105.769 81.284C105.769 81.284 103.156 84.1556 104.125 84.6771C105.095 85.1986 111.366 94.9727 111.366 94.9727C111.366 94.9727 131.963 97.5086 135.848 93.7037C139.732 89.8988 139.654 83.1014 139.654 83.1014C139.654 83.1014 136.533 83.7729 136.193 83.408C135.852 83.0432 133.983 81.284 133.983 81.284C133.983 81.284 107.56 79.6815 105.769 81.284Z" fill="#4B4B5B"/>
<path opacity="0.02" d="M105.769 81.284C105.769 81.284 103.156 84.1556 104.125 84.6771C105.095 85.1986 111.366 94.9727 111.366 94.9727C111.366 94.9727 131.963 97.5086 135.848 93.7037C139.732 89.8988 139.654 83.1014 139.654 83.1014C139.654 83.1014 136.533 83.7729 136.193 83.408C135.852 83.0432 133.983 81.284 133.983 81.284C133.983 81.284 107.56 79.6815 105.769 81.284Z" fill="black"/>
<path d="M142.849 44.9875L136.132 50.3592L134.101 50.5069L133.356 50.5606L120.834 51.4783L107.848 50.5293L105.916 50.3883L103.454 50.2092L98.3042 45.2852C98.3042 45.2852 101.949 41.3818 105.142 38.7475C106.4 37.7067 107.589 36.8652 108.455 36.5339L108.603 36.4824C109.148 36.27 109.635 35.9309 110.022 35.4932C112.543 32.8946 114.874 26.4823 114.874 26.4823C114.874 26.4823 125.995 20.7391 124.651 28.2728C123.308 35.8065 129.651 33.9443 129.651 33.9443L131.742 34.8978L132.568 35.2761L134.675 36.2407L139.428 38.4207C143.158 40.1374 142.849 44.9875 142.849 44.9875Z" fill="#BE6F72"/>
<path opacity="0.1" d="M120.312 32.6171C125.835 32.6171 130.313 28.1409 130.313 22.6192C130.313 17.0975 125.835 12.6212 120.312 12.6212C114.789 12.6212 110.311 17.0975 110.311 22.6192C110.311 28.1409 114.789 32.6171 120.312 32.6171Z" fill="black"/>
<path opacity="0.1" d="M142.864 52.1094H97.9326C97.9326 52.0378 97.9326 51.9997 97.9326 51.9997L98.3043 45.509C98.3043 45.509 101.949 41.6056 105.142 38.9713L133.351 37.8522L134.663 36.469L139.417 38.649C143.149 40.3634 142.849 45.2136 142.849 45.2136C142.849 45.2136 143.359 50.8336 142.864 52.1094Z" fill="black"/>
<path d="M142.864 51.8857H97.9326C97.9326 51.8141 97.9326 51.776 97.9326 51.776L98.3043 45.2853C98.3043 45.2853 101.949 41.3819 105.142 38.7475L133.351 37.6284L134.663 36.2452L139.417 38.4252C143.149 40.1397 142.849 44.9898 142.849 44.9898C142.849 44.9898 143.359 50.6099 142.864 51.8857Z" fill="#E7C7CA"/>
<path opacity="0.1" d="M113.11 33.6848C113.11 33.6848 120.198 42.7136 129.639 33.499C139.08 24.2844 130.685 54.0523 130.685 54.0523L110.311 56.4695L113.11 33.6848Z" fill="black"/>
<path d="M113.11 34.1323C113.11 34.1323 120.198 43.1611 129.639 33.9465C139.08 24.7319 130.685 54.4998 130.685 54.4998L110.311 56.917L113.11 34.1323Z" fill="#E7C7CA"/>
<path opacity="0.1" d="M132.556 35.717L133.306 47.1518L134.11 50.9567L134.724 53.8664C134.724 53.8664 136.291 76.2482 135.843 77.3673C135.395 78.4864 136.067 79.3816 136.161 79.977C136.255 80.5724 136.067 82.0675 136.141 82.7389C136.215 83.4104 136.141 83.7081 134.426 83.4686C132.711 83.2291 130.32 82.8128 130.32 82.8128C130.32 82.8128 124.275 83.2604 122.186 82.5151C120.097 81.7698 116.141 81.7675 116.141 81.7675C116.141 81.7675 110.17 81.9175 108.231 81.6937C106.292 81.4699 105.244 84.0818 103.977 83.3343C102.71 82.5867 105.468 75.3529 106.364 73.2625C107.259 71.172 105.171 65.8765 105.171 65.8765L107.857 50.9769L108.455 47.5995V36.9815L108.603 36.93C109.148 36.7176 109.634 36.3785 110.022 35.9408L110.694 46.6259L131.739 47.3734V35.3477" fill="black"/>
<path d="M132.556 35.2693L133.306 46.7042L134.11 50.5091L134.724 53.4187C134.724 53.4187 136.291 75.8006 135.843 76.9196C135.395 78.0387 136.067 78.934 136.161 79.5294C136.255 80.1247 136.067 81.6198 136.141 82.2913C136.215 82.9627 136.141 83.2604 134.426 83.0209C132.711 82.7814 130.32 82.3651 130.32 82.3651C130.32 82.3651 124.275 82.8128 122.186 82.0675C120.097 81.3221 116.141 81.3199 116.141 81.3199C116.141 81.3199 110.17 81.4699 108.231 81.2461C106.292 81.0222 105.244 83.6342 103.977 82.8866C102.71 82.1391 105.468 74.9053 106.364 72.8148C107.259 70.7244 105.171 65.4288 105.171 65.4288L107.857 50.5292L108.455 47.1518V36.5339L108.603 36.4824C109.148 36.27 109.634 35.9308 110.022 35.4931L110.694 46.1782L131.739 46.9258V34.9" fill="#E7C7CA"/>
<path opacity="0.1" d="M134.977 11.4058C134.849 10.938 134.672 10.4523 134.305 10.139C133.955 9.88732 133.55 9.7217 133.123 9.65555C132.102 9.3871 131.064 9.1882 130.016 9.0602C129.866 8.56321 129.639 8.09272 129.344 7.66581C127.15 4.56817 123.903 1.64734 120.084 0.987078C118.085 0.64016 115.767 0.951267 114.487 2.52695C113.784 3.39312 113.482 4.54131 112.772 5.39182C111.404 7.0436 108.934 7.24727 107.21 8.52527C106.29 9.19673 105.623 10.1703 104.972 11.1148C104.266 12.1377 103.541 13.2031 103.317 14.4251C102.869 16.867 104.484 19.1947 104.781 21.6589C105.453 27.1716 99.5423 32.062 100.66 37.5008C101.311 40.6723 104.242 42.906 107.273 44.0385C108.341 44.4391 109.561 44.8375 110.061 45.8626C110.284 46.3102 110.322 46.8273 110.533 47.2794C111.24 48.7879 113.567 48.8461 114.816 47.7472C116.065 46.6482 116.459 44.8711 116.607 43.2126C117.207 35.9698 114.305 28.8144 114.644 21.5537C114.744 19.3581 115.362 16.867 117.33 15.8732C119.979 14.5303 123.165 16.7685 126.08 16.341C127.459 19.6963 127.752 23.3995 126.917 26.9298C126.454 28.8614 125.652 30.7347 125.594 32.7267C125.506 35.7595 127.143 38.5303 128.558 41.2117C128.862 41.7131 129.065 42.2688 129.156 42.8478C129.178 43.4352 129.069 44.0202 128.836 44.56C128.036 46.7109 126.657 48.7073 126.501 50.997C126.455 51.2643 126.515 51.5389 126.668 51.7625C126.826 51.9116 127.03 52.0031 127.246 52.0221C129.664 52.4361 131.755 50.2942 132.935 48.1433C134.251 45.7677 135.017 43.1277 135.178 40.4171C135.422 35.8602 133.788 31.3771 133.889 26.8157C134.005 21.6298 136.349 16.4081 134.977 11.4058Z" fill="black"/>
<path d="M135.2 11.1821C135.073 10.7143 134.896 10.2286 134.529 9.91525C134.178 9.66357 133.773 9.49795 133.347 9.4318C132.325 9.16335 131.287 8.96445 130.239 8.83645C130.089 8.33946 129.863 7.86897 129.567 7.44206C127.373 4.34441 124.127 1.42359 120.308 0.763324C118.308 0.416405 115.991 0.727512 114.71 2.30319C114.007 3.16937 113.705 4.31756 112.995 5.16807C111.627 6.81984 109.158 7.02352 107.434 8.30152C106.514 8.97297 105.847 9.94658 105.195 10.8911C104.49 11.9139 103.765 12.9793 103.541 14.2014C103.093 16.6432 104.707 18.9709 105.005 21.4352C105.677 26.9478 99.766 31.8382 100.883 37.277C101.535 40.4485 104.465 42.6822 107.497 43.8148C108.565 44.2154 109.785 44.6138 110.284 45.6389C110.508 46.0865 110.546 46.6035 110.757 47.0556C111.464 48.5642 113.79 48.6224 115.039 47.5234C116.289 46.4245 116.683 44.6474 116.831 42.9889C117.431 35.7461 114.529 28.5906 114.867 21.33C114.968 19.1343 115.586 16.6432 117.554 15.6495C120.202 14.3066 123.388 16.5447 126.303 16.1172C127.683 19.4726 127.975 23.1757 127.141 26.7061C126.677 28.6376 125.876 30.511 125.817 32.503C125.73 35.5357 127.367 38.3066 128.782 40.9879C129.085 41.4893 129.288 42.045 129.379 42.624C129.402 43.2115 129.292 43.7965 129.059 44.3362C128.26 46.4871 126.881 48.4836 126.724 50.7733C126.678 51.0405 126.738 51.3152 126.892 51.5387C127.05 51.6879 127.253 51.7794 127.47 51.7983C129.888 52.2124 131.979 50.0705 133.159 47.9196C134.474 45.5439 135.241 42.9039 135.402 40.1934C135.646 35.6364 134.012 31.1534 134.112 26.5919C134.229 21.4061 136.573 16.1844 135.2 11.1821Z" fill="#3E373A"/>
<path d="M130.255 110.282L139.136 110.566L137.863 103.981L131.059 104.628L130.255 110.282Z" fill="#C3C7D9"/>
<path d="M157.775 94.6752C157.177 95.4205 154.864 96.7634 154.64 97.2111C154.417 97.6587 151.656 99.0016 150.237 99.2254C148.817 99.4492 144.342 100.421 143.52 100.942C142.931 101.318 138.205 102.509 135.1 103.169C134.259 103.368 133.407 103.521 132.55 103.628C131.206 103.702 116.506 98.7039 116.506 98.7039L119.34 95.7943L119.497 95.7406C120.298 95.4698 124.002 94.2186 126.057 93.6233C128.372 92.9518 131.058 90.1921 131.058 90.1921C131.058 90.1921 135.012 88.8492 135.536 88.6992C136.06 88.5493 134.193 83.4776 134.193 83.4776C134.193 83.4776 142.774 82.2869 146.133 81.2774C149.491 80.268 157.253 80.6418 158.67 84.5967C160.088 88.5515 158.382 93.9299 157.775 94.6752Z" fill="#4B4B5B"/>
<path d="M118.669 107.283C118.669 107.283 116.954 109.073 115.236 108.926C113.519 108.778 107.515 109.373 107.515 109.373C106.426 109.807 105.407 110.398 104.49 111.126C103.086 112.231 102.341 111.35 102.202 111.162L102.177 111.126C101.429 113.478 99.7144 111.685 99.7144 111.685C99.7144 111.685 100.46 104.523 100.232 103.628C100.003 102.733 101.707 101.195 101.707 101.195L103.722 100.682L108.827 99.3752L116.141 101.911L118.669 107.283Z" fill="#E7C7CA"/>
<path opacity="0.1" d="M103.713 100.682L102.202 111.161L102.177 111.126C101.429 113.478 99.7144 111.685 99.7144 111.685C99.7144 111.685 100.46 104.523 100.232 103.628C100.003 102.732 101.707 101.195 101.707 101.195L103.713 100.682Z" fill="black"/>
<path opacity="0.1" d="M114.276 70.8743C114.276 70.8743 118.23 72.2172 121.664 70.8743H114.276Z" fill="black"/>
<path opacity="0.1" d="M127.774 73.4124C127.774 73.4124 129.416 74.2316 130.685 73.4124H127.774Z" fill="black"/>
<path opacity="0.1" d="M127.774 75.3551C127.774 75.3551 130.535 75.7245 131.059 74.9791L127.774 75.3551Z" fill="black"/>
<path opacity="0.1" d="M126.878 79.5293C126.878 79.5293 132.064 78.8578 133.351 77.9625L126.878 79.5293Z" fill="black"/>
<path opacity="0.1" d="M111.057 77.9625C111.057 77.9625 113.967 79.6031 116.132 79.5292L111.057 77.9625Z" fill="black"/>
<path opacity="0.1" d="M135.098 103.169C134.257 103.368 133.405 103.521 132.548 103.628C131.204 103.702 116.504 98.7038 116.504 98.7038L119.338 95.7942L119.495 95.7405C119.943 96.0561 120.31 96.3269 120.572 96.5328C121.806 97.5042 122.997 96.2351 123.444 96.2351C123.892 96.2351 127.772 99.4424 127.772 99.4424C127.772 99.4424 131.354 100.264 131.952 101.009C132.55 101.754 134.639 101.607 135.01 102.128C135.122 102.289 135.136 102.686 135.098 103.169Z" fill="black"/>
<path d="M107.515 83.7819C107.515 83.7819 103.892 83.9901 101.803 83.1105C99.7146 82.2309 92.7741 80.2008 90.7591 81.6266C88.7442 83.0523 83.8925 84.3124 86.1314 89.9839C88.3703 95.6555 89.4158 95.8032 89.4158 95.8032C90.1085 96.3225 90.7133 96.9497 91.2069 97.6609C91.8786 98.7061 98.1474 101.092 99.7146 101.092C101.282 101.092 104.042 101.092 107.922 103.778C111.802 106.464 115.311 106.764 115.311 106.764C115.311 106.764 120.236 108.778 121.77 109.226C123.303 109.673 130.311 111.611 131.954 111.016C133.598 110.421 134.641 106.687 134.641 106.687C134.641 106.687 135.386 103.33 135.013 102.809C134.639 102.287 132.55 102.435 131.954 101.69C131.359 100.944 127.774 100.123 127.774 100.123C127.774 100.123 123.903 96.9133 123.456 96.9133C123.008 96.9133 121.817 98.1801 120.583 97.211C118.126 95.3915 115.544 93.7461 112.857 92.287C110.022 90.7941 107.515 83.7819 107.515 83.7819Z" fill="#4B4B5B"/>
<path opacity="0.1" d="M100.232 85.9461C100.877 85.8144 101.544 85.8333 102.18 86.0014C102.817 86.1695 103.406 86.4823 103.901 86.9153C105.693 88.4082 111.72 91.4051 111.72 91.4051" fill="black"/>
<path opacity="0.1" d="M145.013 85.8521C145.013 85.8521 137.027 87.0607 135.536 88.7013L145.013 85.8521Z" fill="black"/>
<path d="M154.193 110.566H153.841C152.578 110.521 148.3 110.387 147.476 110.566C146.507 110.79 133.669 110.566 133.669 110.566L136.179 110.045C136.179 110.045 135.247 106.781 135.838 106.511C135.838 106.511 132.48 104.299 135.012 102.806C137.544 101.314 140.274 101.942 140.274 101.942L146.63 99.7893L147.85 99.3752C147.85 99.3752 155.014 99.749 156.953 104.673C158.892 109.597 154.193 110.566 154.193 110.566Z" fill="#E7C7CA"/>
<path opacity="0.1" d="M154.193 110.566H153.841C155.926 108.847 160.641 103.614 146.63 99.8004L147.85 99.3864C147.85 99.3864 155.014 99.7601 156.953 104.684C158.892 109.608 154.193 110.566 154.193 110.566Z" fill="black"/>
<path d="M141.022 104.765C141.238 104.765 141.413 104.589 141.413 104.373C141.413 104.157 141.238 103.981 141.022 103.981C140.805 103.981 140.63 104.157 140.63 104.373C140.63 104.589 140.805 104.765 141.022 104.765Z" fill="#4B4B5B"/>
<path d="M138.745 105.412C138.961 105.412 139.137 105.236 139.137 105.02C139.137 104.804 138.961 104.628 138.745 104.628C138.528 104.628 138.353 104.804 138.353 105.02C138.353 105.236 138.528 105.412 138.745 105.412Z" fill="#4B4B5B"/>
<g opacity="0.1">
<path opacity="0.1" d="M127.651 22.25C127.738 19.7882 127.3 17.3361 126.366 15.0565C123.455 15.4907 120.267 13.2458 117.616 14.5887C115.655 15.5825 115.039 18.0735 114.93 20.2692C114.903 20.8489 114.898 21.4286 114.91 22.0083C114.91 21.8024 114.91 21.5942 114.93 21.3883C115.033 19.1926 115.648 16.7015 117.616 15.7078C120.267 14.3649 123.451 16.6031 126.366 16.1756C127.157 18.1065 127.592 20.1643 127.651 22.25Z" fill="black"/>
<path opacity="0.1" d="M105.096 21.8402C105.135 21.3525 105.125 20.8622 105.067 20.3764C104.83 18.4068 103.753 16.5245 103.558 14.6041C103.308 16.9206 104.783 19.1454 105.067 21.4955C105.096 21.6164 105.096 21.7238 105.096 21.8402Z" fill="black"/>
<path opacity="0.1" d="M116.893 41.9258C116.755 43.5865 116.363 45.3614 115.102 46.4626C113.842 47.5637 111.52 47.5033 110.819 45.9948C110.595 45.5471 110.562 45.0256 110.345 44.578C109.848 43.5529 108.625 43.1545 107.557 42.7539C104.524 41.6191 101.597 39.3966 100.946 36.2162C100.888 35.928 100.848 35.6365 100.827 35.3433C100.772 36.0095 100.812 36.6802 100.946 37.3352C101.597 40.5067 104.528 42.7382 107.557 43.873C108.625 44.2736 109.848 44.672 110.345 45.6971C110.569 46.1447 110.607 46.6618 110.819 47.1139C111.524 48.6224 113.851 48.6806 115.102 47.5816C116.354 46.4827 116.743 44.7056 116.893 43.0449C116.961 42.1707 116.985 41.2937 116.963 40.4172C116.963 40.9253 116.934 41.4266 116.893 41.9258Z" fill="black"/>
<path opacity="0.1" d="M134.187 25.5311C134.187 25.8556 134.187 26.1779 134.187 26.5002C134.312 22.3372 135.839 18.1518 135.689 14.076C135.572 17.8451 134.272 21.6993 134.187 25.5311Z" fill="black"/>
<path opacity="0.1" d="M129.382 42.3711C129.437 42.1056 129.454 41.8336 129.433 41.5632C129.343 40.9839 129.14 40.428 128.835 39.9271C127.541 37.4651 126.066 34.9449 125.891 32.212C125.891 32.3284 125.875 32.4359 125.873 32.5612C125.784 35.5917 127.42 38.3648 128.835 41.0461C129.076 41.4614 129.259 41.9071 129.382 42.3711Z" fill="black"/>
<path opacity="0.1" d="M135.474 39.1326C135.307 41.8442 134.535 44.4841 133.215 46.8588C132.033 49.0097 129.944 51.1516 127.523 50.7375C127.307 50.7189 127.103 50.6264 126.946 50.4757C126.9 50.4244 126.865 50.3652 126.841 50.3011C126.814 50.4757 126.791 50.6525 126.778 50.8316C126.732 51.0981 126.792 51.3722 126.946 51.5948C127.103 51.7455 127.307 51.838 127.523 51.8566C129.944 52.2707 132.033 50.1288 133.215 47.9779C134.535 45.6031 135.307 42.9633 135.474 40.2517C135.501 39.7279 135.503 39.2064 135.487 38.6849C135.483 38.8349 135.483 38.9826 135.474 39.1326Z" fill="black"/>
</g>
<path opacity="0.1" d="M135.838 106.511C135.838 106.511 141.505 108.888 145.242 103.628" stroke="black" stroke-miterlimit="10"/>
<path opacity="0.1" d="M136.954 110.665C136.954 110.665 141.581 107.657 147.476 110.566" stroke="black" stroke-miterlimit="10"/>
<path opacity="0.1" d="M105.977 109.982C105.977 109.982 107.92 105.6 113.11 108.941" stroke="black" stroke-miterlimit="10"/>
<path opacity="0.1" d="M99.6763 45.1732L103.639 41.5921C103.639 41.5921 119.004 40.5849 119.64 45.8066C119.64 45.8066 125.087 39.6158 136.544 40.9945L141.391 44.8531L127.993 50.7306L114.974 55.245L105.385 50.9544L99.6763 45.1732Z" fill="black"/>
<path d="M99.6763 45.397L103.639 41.816C103.639 41.816 119.004 40.8088 119.64 46.0305C119.64 46.0305 125.087 39.8396 136.544 41.2184L141.391 45.077L127.993 50.9545L114.974 55.4689L105.385 51.1783L99.6763 45.397Z" fill="#D5D6DB"/>
<path opacity="0.1" d="M97.9233 45.8446L99.6764 66.8096L118.259 67.7429L117.453 46.8675L117.437 46.5161L97.9233 45.8446Z" fill="black"/>
<path d="M97.9233 45.397L99.6764 66.362L118.259 67.2954L117.453 46.4198L117.437 46.0684L97.9233 45.397Z" fill="#FFC212"/>
<path opacity="0.1" d="M142.242 45.397L123.073 48.2708V69.3298L141.805 66.6239L142.242 45.397Z" fill="black"/>
<path d="M142.242 44.9493L123.073 47.8232V68.8822L141.805 66.1763L142.242 44.9493Z" fill="#FFC212"/>
<path opacity="0.3" d="M137.721 50.0883L127.367 51.2387L127.593 54.7661L137.715 53.6604L137.721 50.0883Z" fill="white"/>
<path d="M100.684 77.5889L101.738 80.4247C101.738 80.4247 103.306 81.7676 105.021 81.0962C106.736 80.4247 108.231 80.0912 108.977 79.4377C109.722 78.7841 110.768 75.5007 110.768 75.5007C110.768 75.5007 111.813 71.9196 112.857 71.0243C113.9 70.1291 116.663 57.7944 112.857 59.0008C109.051 60.2072 106.14 71.3981 106.14 71.3981C106.14 71.3981 105.468 72.2173 104.499 72.2934C103.529 72.3695 101.588 72.1434 101.214 72.9648C100.841 73.7863 99.5644 75.9483 100.684 77.5889Z" fill="#BE6F72"/>
<path opacity="0.1" d="M123.072 48.2688C122.091 48.4899 121.071 48.4783 120.095 48.235C119.119 47.9917 118.213 47.5235 117.451 46.8677L118.259 67.741C118.259 67.741 120.162 69.8001 123.072 69.3301V48.2688Z" fill="black"/>
<path d="M123.072 47.8211C122.091 48.0422 121.071 48.0307 120.095 47.7874C119.119 47.5441 118.213 47.0758 117.451 46.42L118.259 67.2933C118.259 67.2933 120.162 69.3524 123.072 68.8824V47.8211Z" fill="#FFC212"/>
<path opacity="0.1" d="M123.072 47.8211C122.091 48.0422 121.071 48.0307 120.095 47.7874C119.119 47.5441 118.213 47.0758 117.451 46.42L118.259 67.2933C118.259 67.2933 120.162 69.3524 123.072 68.8824V47.8211Z" fill="black"/>
<path opacity="0.1" d="M123.521 45.4686C123.521 45.4686 131.318 43.085 133.351 43.4207L123.521 45.4686Z" fill="black"/>
<path opacity="0.1" d="M114.798 44.4279C114.798 44.4279 107.239 42.6374 105.977 43.1455L114.798 44.4279Z" fill="black"/>
<path opacity="0.1" d="M128.437 45.7664C128.437 45.7664 133.651 43.855 135.536 44.7637L128.437 45.7664Z" fill="black"/>
<path opacity="0.1" d="M125.811 93.7149C126.619 93.1082 127.479 92.5742 128.381 92.1191C129.725 91.4722 132.187 89.7936 132.187 89.7936" fill="black"/>
<path opacity="0.1" d="M105.977 70.8743C105.977 70.8743 102.706 73.5489 101.723 73.7839C100.74 74.0189 100.133 76.1049 100.133 76.1049" fill="black"/>
<path d="M140.319 77.1905L139.275 80.0329C139.275 80.0329 137.708 81.3759 135.991 80.7044C134.274 80.0329 132.783 79.6995 132.035 79.0459C131.287 78.3924 130.244 75.109 130.244 75.109C130.244 75.109 129.2 71.5279 128.155 70.6326C127.109 69.7373 124.349 57.4027 128.155 58.6091C131.961 59.8155 134.871 71.0064 134.871 71.0064C134.871 71.0064 135.543 71.8255 136.512 71.9016C137.482 71.9777 139.423 71.7517 139.797 72.5731C140.171 73.3945 141.438 75.5566 140.319 77.1905Z" fill="#BE6F72"/>
<path opacity="0.1" d="M138.489 71.962C138.489 71.962 140.627 73.3363 140.618 74.9791L138.489 71.962Z" fill="black"/>
<path d="M120.348 32.1269C125.871 32.1269 130.349 27.6507 130.349 22.1289C130.349 16.6072 125.871 12.131 120.348 12.131C114.824 12.131 110.347 16.6072 110.347 22.1289C110.347 27.6507 114.824 32.1269 120.348 32.1269Z" fill="#BE6F72"/>
<path d="M114.068 19.4453C115.281 19.2551 116.345 18.5501 117.505 18.145C120.099 17.234 122.97 17.8585 125.596 18.6799C126.603 18.9955 127.626 19.3513 128.683 19.3513C129.74 19.3513 130.862 18.9194 131.401 18.0084C131.898 17.1714 131.802 16.0836 131.383 15.204C130.965 14.3244 130.264 13.6171 129.556 12.9501C127.228 10.7522 124.34 8.6976 121.145 8.92141C119.86 9.01318 118.631 9.47201 117.449 9.98008C115.96 10.6213 114.511 11.3508 113.11 12.1645C112.033 12.789 110.038 13.6238 109.418 14.7653C108.007 17.337 111.874 19.79 114.068 19.4453Z" fill="#3E373A"/>
<path opacity="0.1" d="M131.401 17.0683C130.862 17.9792 129.74 18.4112 128.683 18.4112C127.626 18.4112 126.603 18.0688 125.593 17.7532C122.967 16.9318 120.099 16.3051 117.502 17.2183C116.345 17.6234 115.279 18.3373 114.066 18.5164C112.297 18.7939 109.449 17.2541 109.14 15.2957C108.793 17.5585 112.095 19.4967 114.066 19.1879C115.279 18.9976 116.345 18.2926 117.502 17.8897C120.099 16.9765 122.967 17.6032 125.593 18.4246C126.603 18.7402 127.624 19.0961 128.683 19.0827C129.742 19.0692 130.862 18.6529 131.401 17.7397C131.681 17.243 131.791 16.6686 131.715 16.1036C131.68 16.4438 131.573 16.7726 131.401 17.0683Z" fill="black"/>
<path d="M212.562 138.367C212.562 138.367 213.89 140.101 211.949 142.722C210.008 145.343 208.409 147.554 209.054 149.188C209.054 149.188 211.982 144.322 214.365 144.253C216.747 144.184 215.179 141.292 212.562 138.367Z" fill="#FFC212"/>
<path opacity="0.1" d="M212.562 138.367C212.678 138.534 212.769 138.717 212.833 138.911C215.157 141.641 216.397 144.19 214.161 144.253C212.079 144.314 209.582 148.036 208.984 148.973C209.003 149.049 209.027 149.124 209.054 149.197C209.054 149.197 211.982 144.331 214.364 144.262C216.747 144.193 215.179 141.292 212.562 138.367Z" fill="black"/>
<path d="M215.025 140.578C215.025 141.189 214.956 141.684 214.873 141.684C214.79 141.684 214.718 141.189 214.718 140.578C214.718 139.967 214.803 140.256 214.888 140.256C214.973 140.256 215.025 139.967 215.025 140.578Z" fill="#FFD037"/>
<path d="M215.874 141.307C215.339 141.598 214.871 141.775 214.83 141.701C214.79 141.627 215.191 141.33 215.726 141.03C216.261 140.73 216.051 140.949 216.091 141.03C216.131 141.11 216.411 141.014 215.874 141.307Z" fill="#FFD037"/>
<path d="M205.546 138.367C205.546 138.367 204.218 140.101 206.159 142.722C208.1 145.343 209.699 147.554 209.052 149.188C209.052 149.188 206.125 144.322 203.741 144.253C201.357 144.184 202.935 141.292 205.546 138.367Z" fill="#FFC212"/>
<path opacity="0.1" d="M205.546 138.367C205.43 138.534 205.339 138.717 205.275 138.911C202.951 141.641 201.71 144.19 203.947 144.253C206.027 144.314 208.525 148.036 209.123 148.973C209.105 149.05 209.081 149.124 209.052 149.197C209.052 149.197 206.125 144.331 203.741 144.262C201.357 144.193 202.935 141.292 205.546 138.367Z" fill="black"/>
<path d="M203.078 140.578C203.078 141.189 203.145 141.684 203.23 141.684C203.315 141.684 203.385 141.189 203.385 140.578C203.385 139.967 203.298 140.256 203.215 140.256C203.132 140.256 203.078 139.967 203.078 140.578Z" fill="#FFD037"/>
<path d="M202.232 141.307C202.767 141.598 203.235 141.775 203.275 141.701C203.316 141.627 202.915 141.33 202.38 141.03C201.845 140.73 202.055 140.949 202.015 141.03C201.975 141.11 201.695 141.014 202.232 141.307Z" fill="#FFD037"/>
<path opacity="0.1" d="M209.054 162.465C216.72 162.465 222.935 161.512 222.935 160.337C222.935 159.161 216.72 158.208 209.054 158.208C201.388 158.208 195.173 159.161 195.173 160.337C195.173 161.512 201.388 162.465 209.054 162.465Z" fill="#FFC212"/>
<path d="M216.198 146.849L216.131 147.391L216.037 148.157L215.999 148.477L215.905 149.242L215.865 149.562L215.773 150.325L214.709 159.032C214.615 159.808 213.346 160.415 211.812 160.415H206.293C204.76 160.415 203.493 159.808 203.396 159.032L202.333 150.325L202.239 149.562L202.201 149.242L202.107 148.477L202.066 148.157L201.975 147.391L201.908 146.849C201.856 146.402 202.541 146.039 203.41 146.039H214.698C215.565 146.039 216.252 146.408 216.198 146.849Z" fill="#65617D"/>
<path d="M216.131 147.391L216.039 148.157H202.069L201.975 147.391H216.131Z" fill="#9D9CB5"/>
<path d="M215.999 148.477L215.907 149.242H202.201L202.107 148.477H215.999Z" fill="#9D9CB5"/>
<path d="M215.867 149.562L215.773 150.327H202.333L202.241 149.562H215.867Z" fill="#9D9CB5"/>
</g>
<defs>
<linearGradient id="paint0_linear" x1="122.385" y1="112.339" x2="122.385" y2="-0.000100457" gradientUnits="userSpaceOnUse">
<stop stop-color="#808080" stop-opacity="0.25"/>
<stop offset="0.54" stop-color="#808080" stop-opacity="0.12"/>
<stop offset="1" stop-color="#808080" stop-opacity="0.1"/>
</linearGradient>
<clipPath id="clip0">
<rect width="229" height="182" fill="white"/>
</clipPath>
</defs>
</svg>
